<svg width="313" height="133" viewBox="0 0 313 133" fill="none" xmlns="http://www.w3.org/2000/svg">
<path d="M36.7754 11.3375V22.675H37.4706H38.1658V11.3375V5.32037e-05H37.4706H36.7754V11.3375Z" fill="black"/>
<path d="M56.5534 3.29303C56.4143 3.7256 54.8432 8.56757 53.0635 14.0444C51.2908 19.5283 49.8448 24.0214 49.8587 24.0354C49.9422 24.1121 51.124 24.4191 51.1657 24.3703C51.2074 24.3214 58.1175 3.06279 58.1175 2.97907C58.1175 2.95814 57.8603 2.85349 57.5475 2.74883C57.2277 2.64418 56.9357 2.5465 56.8871 2.53255C56.8384 2.51162 56.7133 2.79069 56.5534 3.29303Z" fill="black"/>
<path d="M42.1907 10.1236C42.1768 10.1585 41.4538 23.0518 41.4607 23.0657C41.4677 23.0727 41.7805 23.1006 42.1629 23.1285L42.8581 23.1774L43.2126 16.6958C43.4073 13.1376 43.5602 10.2143 43.5532 10.2003C43.5324 10.1724 42.1976 10.0957 42.1907 10.1236Z" fill="black"/>
<path d="M47.3559 17.0028C46.5426 20.1842 45.8613 22.8494 45.8404 22.9261C45.8057 23.0657 45.8543 23.0936 46.4661 23.2401C46.8276 23.3238 47.1404 23.3866 47.1543 23.3657C47.196 23.3169 50.1784 11.6166 50.1575 11.5957C50.1436 11.5817 49.8447 11.498 49.4832 11.4003C49.1287 11.3096 48.8367 11.2329 48.8367 11.2329C48.8297 11.2329 48.1693 13.8283 47.3559 17.0028Z" fill="black"/>
<path d="M68.7396 20.6308C65.1316 25.6123 62.1562 29.7217 62.1284 29.7705C62.0797 29.8542 63.0947 30.6496 63.199 30.6147C63.2268 30.6008 66.0284 26.7635 69.4139 22.082C72.8064 17.4005 75.7818 13.2981 76.0251 12.9632L76.4701 12.3562L75.9487 11.9655C75.6636 11.7562 75.3995 11.5817 75.3647 11.5817C75.323 11.5817 72.3407 15.6563 68.7396 20.6308Z" fill="black"/>
<path d="M58.7918 13.8283C58.7709 13.8771 57.7907 16.4446 56.602 19.5354C55.4201 22.6262 54.3843 25.3123 54.3009 25.5146L54.1619 25.8774L54.7945 26.1216C55.149 26.2611 55.4549 26.3518 55.4758 26.3239C55.5244 26.2681 60.0431 14.4772 60.0779 14.3167C60.0918 14.2609 59.8624 14.1353 59.487 13.9888C58.7709 13.7097 58.8405 13.7236 58.7918 13.8283Z" fill="black"/>
<path d="M61.5724 22.0122C59.7858 24.8308 58.3259 27.1611 58.3259 27.189C58.3259 27.2518 59.327 27.9077 59.4243 27.9077C59.4938 27.9077 66.0077 17.6586 65.966 17.6237C65.9382 17.6028 65.0206 17.0167 64.8954 16.94C64.8537 16.9121 63.4425 19.0679 61.5724 22.0122Z" fill="black"/>
<path d="M69.7203 27.8519C67.4887 30.6147 65.6604 32.9031 65.6604 32.9311C65.6604 32.959 65.8898 33.1752 66.1748 33.4055L66.6893 33.8241L67.0091 33.4264C67.3497 33.0148 74.7187 23.882 74.809 23.7564C74.8577 23.6936 74.378 23.2541 73.8983 22.9052C73.7941 22.8285 73.2935 23.4215 69.7203 27.8519Z" fill="black"/>
<path d="M80.7107 32.2543C75.7193 35.8962 71.6386 38.9102 71.6455 38.9591C71.6594 39.1265 72.3824 40.0475 72.4658 39.9986C72.6952 39.8591 90.5823 26.7774 90.5823 26.7495C90.5823 26.7285 90.4016 26.4704 90.1861 26.1704L89.7829 25.6262L80.7107 32.2543Z" fill="black"/>
<path d="M42.0379 26.6797C41.6555 27.2588 41.6347 27.3495 41.7876 27.6914C41.871 27.8797 41.9475 28.2983 41.9892 28.8007C42.0309 29.2542 42.0796 29.6658 42.0935 29.7216C42.1213 29.8123 42.0379 29.8193 41.4887 29.7844C40.7726 29.7356 40.717 29.6937 40.2999 28.9821L40.0983 28.6472L39.8341 29.1286L39.57 29.603L39.7716 29.9728C40.1956 30.7193 40.1678 30.9217 39.6047 31.4449C39.0694 31.9403 38.7288 32.0449 38.1726 31.8845C38.0406 31.8496 37.9154 31.8356 37.8946 31.8496C37.839 31.9124 38.4229 32.4008 38.7844 32.5961C39.2849 32.8682 39.5561 32.8543 39.8758 32.5403C40.1122 32.2961 40.5293 31.5356 40.5293 31.3403C40.5293 31.2705 40.5849 31.2565 40.724 31.2845C40.8282 31.3124 41.2871 31.3403 41.7459 31.3542L42.5801 31.3821L42.8095 31.6473C42.9972 31.8635 43.0528 31.8984 43.1015 31.8147C43.178 31.6891 43.2823 31.2147 43.3448 30.6984L43.3865 30.3147L43.0459 29.9588C42.4828 29.3867 42.3924 28.7797 42.7678 28.0751L42.9903 27.6425L42.6844 27.2379C42.4897 26.9727 42.3646 26.7285 42.3368 26.5541L42.302 26.282L42.0379 26.6797Z" fill="black"/>
<path d="M34.2727 26.7983C33.5984 27.175 32.9518 27.7541 32.4791 28.396C31.9786 29.0797 31.8604 29.5332 32.1176 29.7914C32.2358 29.91 32.347 29.9309 32.931 29.9309C33.2994 29.9309 33.7791 29.903 33.9877 29.8612C36.5877 29.4077 36.7267 29.3937 36.9422 29.5332C37.1369 29.6658 37.1786 29.7914 37.0395 29.7914C36.9909 29.7984 35.7604 29.9449 34.3005 30.1263C32.1871 30.3914 31.631 30.4821 31.5337 30.5798C31.3043 30.81 30.9428 30.7333 30.4839 30.3495C30.2545 30.1542 30.0529 30.0007 30.0251 30.0007C30.0043 30.0007 29.9347 30.21 29.8791 30.4681L29.7818 30.9426L30.1502 31.3612C30.3588 31.5844 30.5396 31.8496 30.5674 31.9403C30.6577 32.324 30.046 33.3077 29.615 33.4612C29.4829 33.5101 29.2326 33.5519 29.0588 33.5519C28.7529 33.5589 28.7529 33.5589 28.885 33.6915C29.0658 33.8659 29.8861 34.1171 30.2684 34.1171C30.4909 34.1171 30.6021 34.0752 30.7203 33.9496C30.8941 33.7612 31.1444 33.0356 31.1444 32.7008C31.1444 32.3798 31.193 32.338 31.7353 32.1984C32.0064 32.1286 32.2428 32.0379 32.2636 32.01C32.2845 31.9752 33.5288 31.8007 35.0235 31.6124C36.5251 31.431 37.7625 31.2705 37.7764 31.2496C37.7973 31.2286 37.8529 30.8589 37.9085 30.4263C37.9919 29.6937 37.9919 29.6239 37.8737 29.3518C37.6235 28.7867 37.1021 28.396 36.6085 28.396C36.4903 28.396 36.1427 28.4588 35.8299 28.5286C35.0791 28.71 33.7374 28.8844 33.0909 28.8844H32.5695L32.8476 28.6332C33.0005 28.5007 33.4107 28.1937 33.7652 27.9565C34.4187 27.5239 34.5299 27.3774 34.7246 26.7355C34.7802 26.5332 34.7315 26.5401 34.2727 26.7983Z" fill="black"/>
<path d="M44.6726 26.882C44.5961 27.0076 44.4431 27.2797 44.325 27.489L44.1095 27.8727L44.0886 29.7216L44.0608 31.5705L44.2068 31.4379C44.6934 30.9984 44.8603 30.0565 44.8255 27.9286L44.8046 26.6588L44.6726 26.882Z" fill="black"/>
<path d="M49.7683 30.0844C49.3443 31.3891 49.0106 32.4705 49.0314 32.4844C49.0453 32.4984 49.3721 32.617 49.7544 32.7496L50.4427 32.9798L50.7068 32.1705C50.8528 31.724 50.9988 31.3332 51.0266 31.3053C51.0544 31.2705 51.3325 31.3263 51.6453 31.4239C52.4031 31.6681 52.848 31.6612 53.3277 31.41C54.2314 30.9356 54.44 29.61 53.71 28.9681C53.3763 28.675 52.9801 28.5006 51.694 28.089L50.54 27.7192L49.7683 30.0844ZM52.1459 29.4495C52.5352 29.6239 52.6464 29.8402 52.4796 30.1332C52.3822 30.3007 52.3336 30.3146 51.9443 30.3146C51.3812 30.3146 51.3256 30.2518 51.4785 29.7774C51.6662 29.2123 51.6314 29.2262 52.1459 29.4495Z" fill="black"/>
<path d="M73.8219 31.5914L69.1294 35.4845L69.5743 36.0217L70.0262 36.5519L70.5545 36.1194C70.8465 35.8752 72.8973 34.1798 75.1149 32.3449C77.3326 30.5099 79.2026 28.9541 79.2721 28.8913C79.3903 28.7727 79.3764 28.7518 79.001 28.2843C78.7855 28.0192 78.5909 27.782 78.563 27.7541C78.5352 27.7262 76.401 29.4495 73.8219 31.5914Z" fill="black"/>
<path d="M28.6139 28.1797C28.5165 28.403 28.4331 28.6123 28.4331 28.6332C28.4331 28.703 29.0032 28.9542 29.163 28.9542C29.2673 28.9542 29.3577 28.8495 29.4967 28.5704C29.7122 28.1239 29.7122 28.1169 29.5871 28.1169C29.5384 28.1169 29.3507 28.0402 29.17 27.9425C28.9893 27.8448 28.8363 27.7681 28.8224 27.7681C28.8085 27.7681 28.7181 27.9495 28.6139 28.1797Z" fill="black"/>
<path d="M25.5132 29.645V30.3427L26.3544 31.9683C26.8201 32.8613 27.2094 33.6078 27.2164 33.6148C27.2303 33.6288 27.265 33.4543 27.2929 33.2311C27.3554 32.6869 27.2581 32.2404 26.8688 31.3752C26.4656 30.4961 25.6453 28.9542 25.5688 28.9542C25.541 28.9542 25.5132 29.2682 25.5132 29.645Z" fill="black"/>
<path d="M23.5667 30.3147V30.9426L23.8031 31.1031C24.1159 31.3194 25.0753 32.8543 24.9432 32.938C24.8945 32.9729 24.832 33.0008 24.7972 33.0008C24.7694 33.0008 24.5261 33.1055 24.2619 33.238C23.4903 33.6218 23.525 33.6287 23.3929 33.1613C23.2539 32.6729 22.9689 32.2334 22.7117 32.1078C22.5448 32.0241 22.4892 32.031 22.3502 32.1217C22.1347 32.2613 21.947 32.638 21.8288 33.1404C21.7106 33.6427 21.7036 34.3404 21.8218 34.3823C21.8983 34.4102 21.7176 34.5288 21.0015 34.9264C20.8903 34.9823 20.793 34.9962 20.7165 34.9544C20.647 34.9195 20.3202 34.5078 19.9796 34.0404C19.6389 33.5729 19.2775 33.0776 19.1732 32.938C19.0689 32.7985 18.916 32.5892 18.8395 32.4776L18.7004 32.2683V32.8264V33.3915L19.1801 34.0613C20.2438 35.5404 20.1951 35.4567 20.0491 35.5683C19.9726 35.6241 19.7919 35.7288 19.6389 35.7986C19.486 35.8753 19.3122 35.973 19.2496 36.0148C19.055 36.1474 18.8186 36.0218 18.6101 35.673C18.4502 35.4148 18.3946 35.366 18.3459 35.4497C18.2486 35.6381 18.2625 36.0218 18.3807 36.3009C18.4919 36.559 18.4919 36.566 18.3251 36.7335C18.0609 36.9986 17.9218 36.9498 17.7341 36.5451C17.5743 36.2102 17.5603 36.1962 17.4978 36.3358C17.4491 36.4404 17.4561 36.58 17.5047 36.7614C17.5534 36.9079 17.5882 37.0893 17.5882 37.166C17.5882 37.3265 17.3031 37.6126 16.9833 37.773L16.7609 37.8847L16.6844 37.5916C16.5523 37.0823 16.5384 37.0614 16.4411 37.2916C16.3855 37.4172 16.3646 37.6335 16.3855 37.8288L16.4272 38.1568L15.8502 38.7289L15.2732 39.301L15.1342 38.9382C14.9256 38.3591 14.4598 38.1637 13.8828 38.4079C13.5352 38.5544 13.3753 38.8684 13.1737 39.7754C13.0764 40.2149 12.9721 40.6615 12.9443 40.7801L12.8887 40.9894L12.6941 40.6963C12.5828 40.5359 12.3951 40.3196 12.263 40.2219C12.131 40.1242 12.0267 40.0056 12.0267 39.9707C12.0267 39.9289 11.978 39.7335 11.9224 39.5312L11.8181 39.1684L11.3384 39.1963C10.9909 39.2172 10.7892 39.1963 10.6363 39.1126C10.4278 39.0149 10.4208 39.0149 10.4625 39.1265C10.4903 39.1893 10.5737 39.4126 10.6502 39.6079C10.7684 39.9149 10.831 39.9847 11.0256 40.0405C11.2967 40.1173 12.7914 41.3661 12.7914 41.5196C12.7914 41.5754 12.7149 41.701 12.6176 41.7917C12.5203 41.8824 12.4577 42.001 12.4716 42.0429C12.4925 42.0917 12.3951 42.2313 12.2561 42.3499L12.0058 42.5731L11.5331 42.0987C11.2689 41.8406 11.0326 41.6452 11.0117 41.6731C10.9839 41.701 10.9978 41.9173 11.0395 42.1545C11.1021 42.4894 11.1716 42.6359 11.3663 42.8383C11.4983 42.9778 11.6096 43.1104 11.6096 43.1452C11.6096 43.2499 11.0117 43.9476 10.9422 43.9197C10.9005 43.9057 10.824 43.9685 10.7753 44.0522C10.6155 44.3592 10.3443 44.4569 9.77428 44.4011C9.30851 44.3592 9.25289 44.3662 9.11385 44.5057C8.69674 44.9243 9.19728 46.4174 9.97588 47.0593C10.4208 47.4291 10.6294 47.443 10.97 47.136C11.2898 46.843 11.3315 46.829 11.3315 47.0314C11.3315 47.2965 10.9005 48.064 10.5946 48.35C10.3304 48.5942 10.247 48.6291 9.97588 48.6291C9.80209 48.6291 9.55877 48.5802 9.44059 48.5175C9.14861 48.364 8.66894 47.9105 8.36305 47.4918C8.02241 47.0244 7.9807 47.2058 8.31439 47.7081C8.68284 48.2663 9.20423 48.8035 9.73952 49.1524C10.4347 49.6198 10.97 49.6407 11.4219 49.2151C11.5331 49.1105 11.6443 49.0617 11.6721 49.0896C11.7069 49.1244 11.7903 49.3198 11.8598 49.5291C11.9294 49.7314 12.0267 49.9198 12.0753 49.9338C12.1171 49.9547 12.3187 49.8919 12.5133 49.8012C12.8122 49.6617 12.8609 49.6198 12.8261 49.4803C12.8053 49.3965 12.7705 49.25 12.7497 49.1524C12.7219 49.0407 12.7358 48.9779 12.7844 48.9779C12.9582 48.9779 13.4935 48.6849 13.4657 48.6082C13.4518 48.5593 13.3823 48.364 13.3197 48.1686L13.2015 47.8128L12.7705 47.9593C12.5342 48.043 12.3256 48.1128 12.3117 48.1198C12.2978 48.1267 12.3395 48.2802 12.3951 48.4547L12.5064 48.7756L12.2839 48.8663C12.0128 48.9779 11.6791 49.0617 11.6791 49.0198C11.6791 48.9989 11.7556 48.8384 11.8459 48.664C12.1101 48.1686 12.2074 47.6523 12.1031 47.2197C12.0058 46.7802 11.6999 46.2848 11.3245 45.943C10.9839 45.636 10.8796 45.6569 10.4069 46.0965C10.2261 46.2639 10.0384 46.3965 9.98979 46.3755C9.8716 46.3407 9.85075 45.7686 9.96198 45.5592C10.0454 45.3918 10.0663 45.3848 10.8449 45.3848C11.6443 45.3848 11.6443 45.3848 11.9224 45.1616C12.0753 45.036 12.3256 44.7848 12.4716 44.6104L12.7427 44.2895L12.6245 44.0522C12.562 43.9197 12.5133 43.7941 12.5133 43.7801C12.5133 43.7592 12.6523 43.7453 12.8192 43.7453C13.1042 43.7453 13.1529 43.7173 13.431 43.3964C13.5978 43.2011 13.7299 43.0057 13.7299 42.9499C13.7299 42.8662 14.001 42.601 15.5374 41.1778C16.601 40.187 17.178 39.594 17.2128 39.4405C17.2406 39.3498 17.3101 39.28 17.3796 39.28C17.609 39.28 18.2833 38.7707 18.4085 38.4986C18.4919 38.3102 18.5684 38.2335 18.6865 38.2335C19.0202 38.2335 19.4652 37.8847 19.4652 37.6265C19.4652 37.487 19.4999 37.466 19.7015 37.466C19.8336 37.466 19.9587 37.4381 19.9796 37.4032C20.0004 37.3684 20.1534 37.2777 20.3133 37.2009C20.8347 36.9498 20.8625 36.9149 20.7791 36.566C20.6748 36.0916 20.7095 36.0358 20.9876 36.2451C21.1197 36.3428 21.3074 36.4195 21.4047 36.4195C21.509 36.4195 21.8357 36.273 22.1486 36.0846C22.4544 35.9032 23.4208 35.4079 24.2828 34.9892C25.4646 34.4171 25.8678 34.1869 25.9026 34.0753C25.986 33.7683 25.6662 32.7287 25.2699 32.038C24.9084 31.3961 24.8876 31.3403 24.8876 30.8729V30.3775L24.4774 30.2938C24.1576 30.224 24.0117 30.1542 23.817 29.9519L23.5667 29.6938V30.3147ZM22.9897 33.3566C23.1149 33.4683 23.101 33.5799 22.9341 33.7962C22.7812 33.9915 22.5448 34.0334 22.3085 33.9078C22.1416 33.8101 22.1416 33.7334 22.3224 33.4404C22.4544 33.2241 22.5031 33.2032 22.6839 33.238C22.802 33.259 22.9341 33.3148 22.9897 33.3566ZM14.7031 39.4893C14.7309 39.5312 14.6823 39.6638 14.6058 39.7893C14.4112 40.0963 13.431 41.0661 13.3753 41.0033C13.3197 40.9475 13.4935 40.3545 13.6812 39.9777C13.8828 39.5731 14.5571 39.2452 14.7031 39.4893Z" fill="black"/>
<path d="M56.5533 30.7891C55.6009 31.2426 54.8501 32.4636 54.8501 33.5589C54.8501 34.2496 55.0447 34.7241 55.4827 35.1218C56.0319 35.6171 56.3795 35.7567 57.0747 35.7567C57.5891 35.7567 57.7073 35.7357 57.9854 35.5683C58.1592 35.4636 58.4233 35.2473 58.5624 35.0938L58.8266 34.8008L58.2148 34.431L57.603 34.0613L57.464 34.2357C57.026 34.8008 56.2613 34.5636 56.2891 33.8729C56.303 33.4543 56.7132 32.6031 57.0886 32.2124C57.3319 31.9542 57.4431 31.8845 57.6239 31.8845C58.1731 31.8845 58.3191 32.2194 58.1105 32.9868C58.0897 33.0496 58.2913 33.1822 58.6736 33.3496C59.0003 33.4961 59.2993 33.6217 59.341 33.6217C59.4522 33.6287 59.5774 33.0845 59.5774 32.6031C59.5704 31.8635 59.2437 31.3612 58.472 30.9217C58.0758 30.7054 57.9506 30.6705 57.464 30.6496C56.9843 30.6217 56.8522 30.6426 56.5533 30.7891Z" fill="black"/>
<path d="M20.7305 31.3054C20.6053 31.9263 20.5497 31.8705 21.2797 31.9891L21.5299 32.024L21.6412 31.5914C21.7037 31.3542 21.7385 31.1379 21.7246 31.11C21.7037 31.0891 21.5577 31.0472 21.3978 31.0263C21.231 30.9984 21.0364 30.9635 20.9599 30.9426C20.8347 30.9007 20.8069 30.9495 20.7305 31.3054Z" fill="black"/>
<path d="M52.4169 33.0426C52.2918 33.3635 52.2014 33.6496 52.2222 33.6636C52.2639 33.7124 53.4805 34.1868 53.4944 34.1659C53.5153 34.145 53.9463 32.9938 53.9463 32.9659C53.9463 32.9519 53.8629 32.9101 53.7586 32.8752C53.6474 32.8333 53.3554 32.7217 53.1051 32.624L52.6393 32.4496L52.4169 33.0426Z" fill="black"/>
<path d="M61.9268 36.1543C60.7937 37.5218 60.3696 38.073 60.4183 38.1358C60.453 38.1776 60.7172 38.4079 60.9953 38.6451L61.5028 39.0637L62.1493 38.2962L62.7889 37.5358L63.199 37.8916C63.4215 38.0869 63.6092 38.2753 63.6092 38.3102C63.6092 38.3521 63.345 38.7009 63.0183 39.0846C62.6915 39.4753 62.4274 39.8102 62.4274 39.8312C62.4343 39.887 63.5118 40.7591 63.5744 40.7591C63.6022 40.7591 64.3391 39.9009 65.2151 38.8614L66.8001 36.9567L66.23 36.4823C65.9172 36.2171 65.6461 36.0008 65.6252 36.0008C65.6044 36.0008 65.3263 36.3148 65.0065 36.6985L64.4295 37.4032L64.0402 37.0753C63.8177 36.8939 63.6161 36.7195 63.5814 36.6916C63.5466 36.6637 63.776 36.3427 64.0819 35.9799C64.3947 35.6241 64.652 35.2962 64.6659 35.2543C64.6867 35.1915 63.6439 34.2566 63.5536 34.2566C63.5258 34.2566 62.7958 35.1148 61.9268 36.1543Z" fill="black"/>
<path d="M38.3741 35.7079L38.0613 35.7567L38.6174 35.8474C40.3901 36.1405 41.7805 36.8521 42.9762 38.0731C44.4153 39.5591 45.1174 41.2755 45.1174 43.3197C45.1174 44.2825 45.034 44.8407 44.7907 45.5942C44.0607 47.8547 42.3645 49.6129 40.119 50.4501L39.5907 50.6454L44.6516 50.6524H49.7056V62.7573V74.8623H48.5238H47.342V67.5016V60.141H46.6468H45.9516V77.9042C45.9516 89.2766 45.9725 95.6465 46.0211 95.6186C46.0559 95.5976 46.5356 95.472 47.0778 95.3465C48.3222 95.0465 49.7404 94.5999 50.957 94.1255C52.4307 93.5394 54.6206 92.472 55.281 92.0115C55.3783 91.9417 55.4826 91.8859 55.5035 91.8859C55.6564 91.8859 58.2425 90.044 59.1601 89.2905C61.7879 87.1137 64.1029 84.3997 65.8826 81.4206C68.1211 77.66 69.4767 73.5506 69.9842 68.9877C70.144 67.5156 70.144 64.3481 69.9842 62.862C69.2959 56.6316 67.0435 51.2873 63.0671 46.4663C62.2328 45.4546 60.2863 43.4941 59.4313 42.8034C59.3409 42.7267 59.1045 42.5383 58.9168 42.3848C58.7222 42.2313 58.5067 42.0499 58.4302 41.9801C58.3051 41.8615 57.9714 41.6243 56.5532 40.6406C56.1222 40.3406 54.6136 39.4196 54.5511 39.4196C54.5372 39.4196 54.2243 39.2591 53.8698 39.0568C51.8746 37.9545 48.7602 36.8102 46.473 36.3568C46.2436 36.3079 45.9377 36.2381 45.7917 36.2033C45.6457 36.1614 44.8185 36.0358 43.9495 35.9172C42.5939 35.7358 42.1142 35.7009 40.5292 35.687C39.5142 35.673 38.5479 35.687 38.3741 35.7079Z" fill="black"/>
<path d="M58.764 36.2869C58.5972 36.552 58.4651 36.8032 58.4651 36.8311C58.4651 36.866 58.7223 37.0544 59.0351 37.2497L59.6052 37.6055L59.9389 37.0753C60.1266 36.7892 60.2587 36.5241 60.2378 36.4962C60.1891 36.4125 59.1881 35.7915 59.1186 35.7915C59.0838 35.7915 58.9239 36.0148 58.764 36.2869Z" fill="black"/>
<path d="M36.9145 35.9102C36.8172 35.9241 36.407 36.0288 36.0038 36.1404C32.0065 37.2428 29.6776 41.5615 30.929 45.5732C31.5963 47.729 33.3065 49.543 35.4199 50.3384C35.691 50.4361 35.9691 50.5477 36.0455 50.5826C36.1289 50.6175 33.6402 50.6454 30.1921 50.6454L24.1926 50.6524V63.3852V76.1181H25.9306H27.6686V68.3039V60.4898H28.1899H28.7113V77.2623V94.0278L29.045 94.1533C29.2258 94.2231 29.4691 94.3138 29.5803 94.3696C30.199 94.6417 32.1455 95.1929 33.7514 95.5557C34.6413 95.7511 36.0594 95.9673 36.8797 96.0301C37.1856 96.058 37.568 96.0929 37.7348 96.1139L38.0268 96.1487V66.0085V35.8613L37.561 35.8683C37.2969 35.8753 37.0118 35.8962 36.9145 35.9102Z" fill="black"/>
<path d="M79.4594 39.3917C76.5327 41.2894 74.0995 42.8662 74.0509 42.9011C73.9118 42.9848 74.6348 44.115 74.7878 44.0592C75.1006 43.9406 85.577 37.0823 85.5492 37.0125C85.4866 36.8521 84.8749 35.9311 84.8262 35.9311C84.7984 35.9311 82.3861 37.487 79.4594 39.3917Z" fill="black"/>
<path d="M67.6276 41.4917L65.7019 43.0615L66.126 43.5987C66.3623 43.8917 66.5778 44.1568 66.6056 44.1917C66.6335 44.2266 66.9949 43.9824 67.3982 43.6545L68.1351 43.0475L68.3088 43.2498L68.4757 43.4522L67.9682 44.3452L67.4538 45.2383L67.9752 45.8801L68.5035 46.529L69.0596 45.4825C69.4837 44.6941 69.6506 44.4499 69.727 44.4848C70.1858 44.6801 70.6447 44.6383 71.1035 44.3522C71.7778 43.9196 71.9447 43.2359 71.5623 42.4754C71.3816 42.1266 69.6784 39.9079 69.588 39.9149C69.5671 39.9149 68.6842 40.6265 67.6276 41.4917ZM70.0677 42.1754C70.4987 42.6987 70.4153 43.1871 69.9078 43.1871C69.6506 43.1801 69.5671 43.1173 69.2195 42.6917L68.9623 42.3708L69.3238 42.0847C69.5254 41.9242 69.7131 41.7987 69.7409 41.8126C69.7618 41.8196 69.9078 41.9801 70.0677 42.1754Z" fill="black"/>
<path d="M64.5825 40.9893L64.1306 41.4428L64.6381 41.9521L65.1386 42.4545L65.6044 41.987L66.0632 41.5196L65.5905 41.0312C65.3263 40.7591 65.0969 40.5358 65.0761 40.5358C65.0483 40.5358 64.8258 40.7381 64.5825 40.9893Z" fill="black"/>
<path d="M82.1776 44.2336C79.1049 45.4615 76.5745 46.4732 76.5606 46.4941C76.491 46.5639 77.0124 47.7569 77.1098 47.75C77.1932 47.736 88.2953 43.3406 88.337 43.2987C88.3717 43.2708 87.8504 42.001 87.8086 42.008C87.7878 42.008 85.2504 43.0127 82.1776 44.2336Z" fill="black"/>
<path d="M8.14071 43.5708C8.01558 43.6266 7.82788 43.6754 7.7375 43.6754C7.62627 43.6754 7.57761 43.7103 7.59847 43.7592C7.61237 43.808 7.68189 44.0313 7.75141 44.2475C7.87654 44.6313 7.88349 44.6452 8.09205 44.6034C8.41183 44.5475 8.77333 44.3661 8.73857 44.2754C8.72467 44.2336 8.66905 44.0313 8.62039 43.8289C8.51611 43.4382 8.49525 43.4243 8.14071 43.5708Z" fill="black"/>
<path d="M14.147 43.7521C14.0358 43.78 13.8481 43.8289 13.7438 43.8498C13.5422 43.8917 13.5283 43.9614 13.6674 44.4498C13.6952 44.5405 13.6118 44.5824 13.2781 44.6452L12.854 44.7289L12.8957 44.9522C13.0208 45.5731 13.0765 45.7057 13.1946 45.6778C13.2572 45.6568 13.4588 45.608 13.6465 45.5592C13.9941 45.4685 14.0011 45.4545 13.9107 45.0638L13.8551 44.8126L14.2722 44.694L14.6823 44.5754L14.6406 44.3522C14.6128 44.2266 14.5711 44.0242 14.5503 43.8987C14.5085 43.6614 14.4807 43.6545 14.147 43.7521Z" fill="black"/>
<path d="M88.8446 47.1219C83.0537 49.0057 78.2569 50.5755 78.1944 50.5964C78.0901 50.6383 78.097 50.7011 78.2778 51.2801C78.389 51.636 78.4863 51.929 78.5002 51.9429C78.528 51.9639 99.8146 45.0358 99.8702 44.98C99.9258 44.9242 99.5226 43.7242 99.4392 43.7032C99.4044 43.6962 94.6355 45.2312 88.8446 47.1219Z" fill="black"/>
<path d="M69.2613 46.808L68.7607 47.1359L69.157 47.7359L69.5533 48.329L70.0885 47.9662L70.6308 47.6034L70.2623 47.0383C70.0677 46.7243 69.873 46.4661 69.8313 46.4731C69.7966 46.4731 69.5393 46.6266 69.2613 46.808Z" fill="black"/>
<path d="M72.0768 48.0848C72.2853 48.2941 72.1671 48.4616 71.3955 49.0406C70.6516 49.6127 70.6308 49.6197 70.4639 49.5151C70.3179 49.4174 70.5404 49.7593 71.465 51.043C71.5623 51.1756 71.5971 51.1826 71.8821 51.1198L72.1949 51.043L71.9169 51.0012C71.7639 50.9802 71.5971 50.9384 71.5484 50.9105C71.465 50.8546 70.9089 50.0662 70.9089 49.9965C70.9089 49.9128 72.3966 48.8383 72.5147 48.8383C72.5843 48.8383 72.6885 48.9081 72.7441 48.9918C72.8067 49.0755 72.8554 49.1244 72.8554 49.0965C72.8554 49.0197 72.0976 48.0011 72.042 48.0011C72.0142 48.0011 72.0281 48.036 72.0768 48.0848Z" fill="black"/>
<path d="M4.90124 48.9151C4.46327 49.1872 4.21301 49.264 3.93493 49.2151L3.65686 49.1733L3.88627 49.4523C4.00445 49.6128 4.20605 49.8221 4.32424 49.9198C4.51194 50.0803 4.58145 50.1012 4.84562 50.0593C5.07503 50.0245 5.36701 50.0733 6.01353 50.2407C6.49321 50.3663 6.88251 50.4989 6.88251 50.5407C6.88251 50.5826 6.813 50.757 6.73653 50.9314C6.66006 51.1059 6.50016 51.4896 6.38893 51.7966C6.18733 52.3478 6.08305 52.5361 5.97182 52.5361C5.8745 52.5361 5.9023 52.0896 6.01353 51.8175L6.11781 51.5663L5.81888 51.3361C5.65899 51.2105 5.4991 51.071 5.47129 51.0221C5.40177 50.9105 5.28359 50.9035 5.28359 51.0152C5.28359 51.2524 4.88038 51.8733 4.46327 52.271C4.20605 52.5082 3.94188 52.7873 3.87932 52.885C3.60819 53.2757 3.78894 53.7571 4.35204 54.1269C4.79001 54.4199 4.86648 54.4129 4.86648 54.085C4.86648 53.9106 4.94295 53.6943 5.09589 53.4431C5.34616 53.0175 5.45739 52.9478 5.5269 53.171C5.62423 53.478 5.56862 53.8548 5.33225 54.4408C5.20017 54.7687 5.10284 55.0548 5.1237 55.0757C5.15846 55.1106 5.01942 55.7316 4.96381 55.8013C4.95685 55.8153 4.78306 55.7316 4.5745 55.6129C4.08092 55.3339 3.40659 55.2432 3.19804 55.4315C3.00338 55.606 3.02424 55.8432 3.2606 56.3525C3.48306 56.8269 3.94884 57.3711 4.26167 57.5316C4.40766 57.6083 4.44937 57.6711 4.41461 57.7549C4.3868 57.8177 4.33119 58.0549 4.28948 58.2711L4.21301 58.6758H3.76114C3.34402 58.6758 2.94777 58.7665 2.73226 58.906C2.57932 59.0037 2.62798 59.3456 2.83654 59.5619C3.07985 59.827 3.89322 60.2945 4.3729 60.4549C4.67878 60.5526 4.79001 60.5596 5.00552 60.4968C5.33225 60.3991 5.42263 60.2875 5.47129 59.9317C5.49215 59.7712 5.54081 59.6596 5.58947 59.6735C5.72156 59.7154 6.11086 60.3503 6.19428 60.6503C6.27075 60.9503 6.2499 61.5294 6.15257 61.7805C6.09696 61.9061 6.11086 61.9061 6.27075 61.7596C6.6392 61.4177 7.0146 60.4758 6.92423 60.1131C6.86861 59.8828 6.54187 59.5689 6.08305 59.3037C5.63118 59.0456 5.61728 59.2549 6.22904 57.0781C6.47236 56.2199 6.6531 55.4943 6.6392 55.4664C6.61834 55.4385 6.68786 55.2222 6.77824 54.985C7.03546 54.3571 7.0146 54.2525 6.53492 53.6594C6.29856 53.3803 6.13172 53.1292 6.14562 53.1082C6.16647 53.0943 6.30551 53.1292 6.4654 53.192C6.75043 53.3036 7.07717 53.3315 7.34134 53.2617C7.48733 53.2199 7.88358 52.3826 8.27984 51.2663C8.46754 50.7221 8.47449 50.7291 7.79321 50.2756C7.48733 50.0733 7.09802 49.8989 6.60444 49.7454C5.94402 49.543 5.83974 49.4872 5.49215 49.1523L5.10979 48.7826L4.90124 48.9151ZM4.65792 56.1571C4.78306 56.4083 4.74135 56.7083 4.55365 56.8339C4.31033 56.9944 4.15044 56.9316 4.05311 56.6316C3.94884 56.3176 3.99055 56.192 4.22691 56.1013C4.50498 56.0037 4.5745 56.0106 4.65792 56.1571ZM4.0114 59.4572C3.89322 59.7503 3.61515 59.82 3.61515 59.5619C3.61515 59.4363 3.67076 59.3665 3.8098 59.3177C4.09482 59.2061 4.10873 59.22 4.0114 59.4572Z" fill="black"/>
<path d="M73.3072 50.2756C73.1265 50.4221 73.1195 50.443 73.2516 50.4081C73.4671 50.3453 73.634 50.457 73.8147 50.7779L73.9676 51.057L73.1543 51.5314C72.7024 51.7896 72.3062 52.0128 72.2783 52.0337C72.2436 52.0477 72.1463 51.9919 72.0489 51.9012C71.9238 51.7826 71.9516 51.8733 72.188 52.2849C72.5217 52.864 72.6468 53.0454 72.5008 52.7175C72.4174 52.5361 72.4243 52.5082 72.5564 52.3965C72.765 52.2291 74.0789 51.4895 74.1692 51.4895C74.2457 51.4895 74.3361 51.6361 74.4473 51.9291C74.496 52.0477 74.4821 52.1524 74.4195 52.2849C74.3083 52.4942 74.3152 52.4942 74.5586 52.3826C74.6837 52.3268 74.7323 52.264 74.7045 52.1733C74.6698 52.0198 73.8078 50.4849 73.634 50.2546L73.5158 50.0942L73.3072 50.2756Z" fill="black"/>
<path d="M85.3199 53.5687C81.9483 54.4826 79.1675 55.2431 79.1467 55.264C79.1258 55.285 79.1815 55.585 79.2788 55.9269C79.4317 56.499 79.4526 56.5478 79.6055 56.5269C79.8488 56.499 91.8616 53.2896 91.9172 53.2407C92.0007 53.164 91.66 51.943 91.5488 51.9291C91.4932 51.9291 88.6916 52.6617 85.3199 53.5687Z" fill="black"/>
<path d="M74.8296 52.5012C74.8504 52.557 74.8852 52.6477 74.906 52.6896C74.9269 52.7384 74.913 52.8152 74.8852 52.857C74.8296 52.9477 73.3141 53.7222 73.1889 53.7222C73.1472 53.7222 73.0499 53.6664 72.9804 53.6036C72.8344 53.471 73.321 54.6222 73.5921 55.0548C73.9397 55.6059 74.4263 55.8362 74.9408 55.6827C75.4969 55.5152 75.7611 55.0129 75.636 54.3431C75.5734 54.0013 74.8991 52.3966 74.8226 52.3966C74.8017 52.3966 74.8087 52.4454 74.8296 52.5012ZM75.2953 53.6664C75.483 54.0361 75.4552 54.685 75.2467 54.9152C74.7739 55.4385 73.9745 55.3757 73.5852 54.7827C73.3975 54.4966 73.2793 54.071 73.3975 54.071C73.4322 54.071 73.8215 53.9036 74.2526 53.6943C74.6905 53.4919 75.0659 53.3315 75.1007 53.3524C75.1285 53.3664 75.2189 53.5129 75.2953 53.6664Z" fill="black"/>
<path d="M1.70294 55.0548C1.51524 55.2013 1.3484 55.3478 1.33449 55.3827C1.32754 55.4176 1.41096 55.5501 1.52219 55.6757L1.7238 55.906L1.3623 56.1501C1.16765 56.2827 1.0008 56.4013 0.993852 56.4083C0.979948 56.4153 1.09118 56.5827 1.23021 56.7781C1.3762 56.9944 1.52914 57.1409 1.60561 57.1409C1.68208 57.1409 1.7377 57.1199 1.7377 57.0851C1.7377 57.0571 1.86283 56.9455 2.00882 56.8339L2.27994 56.6316L2.10615 56.3664L1.93235 56.1013L2.16176 55.906C2.2869 55.8013 2.43288 55.6757 2.49545 55.6339C2.58582 55.5641 2.56497 55.5013 2.32861 55.1594C2.18262 54.9431 2.05748 54.7687 2.05748 54.7757C2.05053 54.7757 1.89759 54.9013 1.70294 55.0548Z" fill="black"/>
<path d="M74.9757 57.2734C74.6142 57.4339 74.2596 57.7897 74.0997 58.1525C73.9398 58.4944 73.9329 58.7246 74.0858 58.4316C74.2666 58.0897 74.4404 57.9292 74.8853 57.7339C75.3233 57.5385 76.0254 57.4339 76.3591 57.5176C76.4564 57.5385 76.658 57.6641 76.7971 57.7897L77.0612 58.0129L76.8805 57.7688C76.4703 57.2176 75.5944 56.9873 74.9757 57.2734Z" fill="black"/>
<path d="M76.8943 58.2641C76.8804 58.5222 76.6997 58.6199 75.8376 58.8222L74.9756 59.0245L74.8505 58.8711L74.7253 58.7176L74.7601 58.892C74.7879 58.9827 74.8296 59.185 74.8644 59.3385C74.913 59.5687 74.9269 59.5827 74.9339 59.4222C74.9408 59.2966 74.9895 59.2059 75.1007 59.1641C75.3023 59.0734 76.5467 58.8013 76.5884 58.8362C76.6162 58.8711 75.7334 60.2316 75.3858 60.692C75.2537 60.8595 75.1494 61.0199 75.1494 61.0409C75.1494 61.0688 75.5318 61.0339 76.0045 60.9711C77.1724 60.8037 77.2975 60.8037 77.374 60.992C77.4227 61.1037 77.4296 61.0269 77.4018 60.7339C77.3531 60.3083 77.3045 60.1339 77.3045 60.413C77.3045 60.5037 77.2419 60.5874 77.1515 60.6292C76.9847 60.699 76.1018 60.8385 75.8376 60.8385C75.7056 60.8385 75.6986 60.8246 75.782 60.706C76.4564 59.785 77.0264 58.8501 77.0195 58.6897C77.0125 58.4664 76.9013 58.1036 76.8943 58.2641Z" fill="black"/>
<path d="M86.5505 58.9967C83.3179 59.1991 80.6345 59.3665 80.5858 59.3665C80.5094 59.3735 80.4955 59.513 80.5163 60.0293C80.5233 60.3921 80.558 60.7061 80.5789 60.727C80.6136 60.7689 92.2163 60.0921 92.5152 60.0293C92.6403 60.0014 92.6681 59.9526 92.6681 59.7293C92.6681 59.2061 92.5778 58.606 92.5013 58.613C92.4596 58.62 89.7831 58.7874 86.5505 58.9967Z" fill="black"/>
<path d="M2.85721 61.1944C2.4262 61.2782 1.98128 61.5084 1.877 61.7038C1.80053 61.8503 1.80749 61.9061 1.94652 62.1224C2.2524 62.6247 2.94064 63.0015 3.54545 63.0015C3.9417 63.0015 3.96951 62.9875 4.10159 62.7712C4.31015 62.4363 4.28234 62.1224 4.03208 61.8852C3.79571 61.6689 3.85133 61.6061 4.28234 61.6061C4.51175 61.6061 4.53956 61.627 4.73421 62.0456C5.12352 62.8828 5.0679 63.8526 4.60908 64.1526C4.28929 64.3689 3.42031 64.2015 2.90588 63.8247C2.69037 63.6712 2.66951 63.8457 2.88502 64.0201C3.5663 64.5713 4.87325 65.0317 5.4433 64.9271C5.75613 64.8713 6.10373 64.5782 6.22886 64.2782C6.35399 63.9852 6.35399 63.1131 6.22886 62.6945C6.06897 62.1573 5.70052 61.6131 5.39464 61.4526C4.83154 61.1596 3.63582 61.0409 2.85721 61.1944ZM3.24652 62.0666C3.30908 62.227 3.14919 62.527 3.01015 62.4991C2.8016 62.4573 2.73903 62.2549 2.87807 62.1014C3.03796 61.927 3.18395 61.9131 3.24652 62.0666Z" fill="black"/>
<path d="M0.396255 61.8084L0.0764703 62.1363L0.326737 62.3875L0.570051 62.6386L0.285026 62.9456L0 63.2596L0.312833 63.5805C0.479677 63.7619 0.660425 63.8875 0.709088 63.8666C0.757751 63.8526 0.90374 63.6921 1.03583 63.5177L1.27219 63.2038L1.06363 62.9875L0.848125 62.7712L1.11925 62.4223L1.39732 62.0735L1.16791 61.8363C0.785559 61.4386 0.757751 61.4386 0.396255 61.8084Z" fill="black"/>
<path d="M75.5733 61.8574C75.3022 62.0806 75.2118 62.4016 75.3022 62.8132C75.3926 63.2458 75.615 63.4341 76.0669 63.476C76.4075 63.4969 76.4493 63.483 76.637 63.2946C76.8733 63.0434 76.9567 62.562 76.8177 62.2341C76.5952 61.6899 75.9835 61.5085 75.5733 61.8574ZM76.6231 62.1434C76.7621 62.269 76.7899 62.6527 76.6787 62.8551C76.6439 62.9248 76.484 63.0365 76.3172 63.1062C75.5664 63.4062 75.0519 62.8062 75.5942 62.262C75.7958 62.0597 75.8792 62.0248 76.1642 62.0248C76.3728 62.0248 76.5396 62.0667 76.6231 62.1434Z" fill="black"/>
<path d="M76.7204 63.7759C76.8038 63.9154 76.5883 63.9782 76.0391 63.9782C75.6011 63.9782 75.4899 63.9573 75.4343 63.8526C75.3786 63.7619 75.3647 63.8317 75.3647 64.1527C75.3647 64.4736 75.3786 64.5434 75.4343 64.4457C75.4899 64.348 75.6011 64.3271 76.053 64.3271C76.6647 64.3271 76.7482 64.3899 76.7482 64.8015C76.7482 65.0596 76.6647 65.0945 76.0113 65.0945C75.5385 65.0945 75.4899 65.0806 75.4273 64.9341C75.3856 64.8224 75.3647 64.8922 75.3647 65.2341C75.3717 65.4852 75.3856 65.6387 75.4065 65.5829C75.476 65.4085 75.5663 65.3876 76.1225 65.4224C76.6091 65.4573 76.6717 65.4504 76.8107 65.3108C76.9915 65.1294 76.9984 64.8503 76.8177 64.5503C76.6786 64.3271 76.6786 64.3271 76.8177 64.3271C76.8942 64.3271 76.9567 64.2992 76.9567 64.2643C76.9567 64.1666 76.7482 63.6992 76.7065 63.6992C76.6856 63.6992 76.6925 63.734 76.7204 63.7759Z" fill="black"/>
<path d="M80.6414 64.6759V65.3736H91.9381H103.235V64.6759V63.9782H91.9381H80.6414V64.6759Z" fill="black"/>
<path d="M2.46781 66.6085C2.31487 66.6154 1.70311 66.6992 1.1122 66.7829L0.034668 66.9364L0.472634 67.1317C1.31381 67.5085 1.32076 67.5085 3.26728 67.2573C4.24053 67.1387 5.04695 67.0271 5.06085 67.0131C5.09561 66.9852 4.63679 66.7271 4.38652 66.6434C4.17102 66.5666 3.16995 66.5457 2.46781 66.6085Z" fill="black"/>
<path d="M75.8169 67.5364C75.7683 68.0109 75.7891 68.1644 75.9143 68.1644C75.9768 68.1644 76.0186 67.983 76.0881 67.4109C76.1298 67.0829 76.1228 67.0481 75.9977 67.0481C75.8795 67.0481 75.8587 67.1109 75.8169 67.5364Z" fill="black"/>
<path d="M0.674424 68.6876C0.500628 68.8899 0.354639 69.0016 0.250361 69.0016C-0.0346642 69.0016 -0.00685682 69.0923 0.326832 69.2946C0.667472 69.49 0.95945 69.5458 1.08458 69.4202C1.16105 69.3434 2.21773 69.183 2.27335 69.2388C2.30116 69.2667 1.92576 69.6434 1.73806 69.769C1.71025 69.79 1.50865 70.0551 1.28619 70.3621C0.84822 70.983 0.458917 71.7574 0.514532 71.904C0.58405 72.0784 1.72415 71.9877 1.93271 71.7854C2.00918 71.7226 2.15517 71.4226 2.25945 71.1295C2.41934 70.697 2.44019 70.5853 2.36372 70.5365C2.23859 70.4597 2.44019 69.9993 2.71132 69.7341L2.90597 69.5458L3.12147 69.7062C3.39955 69.9086 3.67067 70.3062 3.72628 70.5853L3.768 70.8016L4.5466 70.8295C4.97067 70.8504 5.32521 70.8644 5.33216 70.8574C5.35997 70.8365 5.05409 68.6109 5.01238 68.562C4.94286 68.4923 3.87227 68.6388 3.32308 68.8062C2.92682 68.9248 2.80169 68.9318 2.50276 68.869C2.30811 68.8271 2.05784 68.7923 1.94661 68.7923C1.82843 68.7923 1.73806 68.7644 1.73806 68.7295C1.73806 68.6806 1.09153 68.3736 0.980305 68.3736C0.952498 68.3736 0.813461 68.5132 0.674424 68.6876ZM3.58725 69.2388C3.6081 69.2946 3.61506 69.3923 3.60115 69.4551C3.5803 69.5527 3.55944 69.5458 3.4204 69.4132C3.28832 69.2946 3.27441 69.2527 3.35088 69.2039C3.48297 69.1202 3.54554 69.1272 3.58725 69.2388Z" fill="black"/>
<path d="M80.1967 68.869C80.1759 68.9876 80.155 69.3016 80.155 69.5667C80.155 69.9505 80.1759 70.0481 80.2593 70.0481C80.3149 70.0481 83.2138 70.2086 86.7037 70.397C90.1865 70.5923 93.0507 70.7319 93.0646 70.7179C93.0855 70.704 93.1133 70.39 93.1341 70.0272L93.1758 69.3644L92.5571 69.3225C91.8689 69.2737 80.6208 68.6527 80.3914 68.6527C80.2802 68.6527 80.2315 68.7086 80.1967 68.869Z" fill="black"/>
<path d="M74.7881 69.797C74.7186 70.1039 74.6769 70.3691 74.6978 70.383C74.7186 70.404 74.7325 70.3691 74.7325 70.3063C74.7325 70.1109 74.9341 70.0621 75.3026 70.1598C75.4972 70.2086 75.6571 70.2574 75.671 70.2714C75.6849 70.2853 75.6502 70.4667 75.5946 70.6761C75.5389 70.8854 75.5111 71.1505 75.532 71.2691C75.5876 71.5621 75.824 71.7924 76.0812 71.7924C76.5053 71.7854 76.7347 71.4575 76.9571 70.5226C77.124 69.8318 77.124 69.7691 76.9988 69.9435C76.9015 70.076 76.8876 70.076 76.248 69.9505C75.1357 69.7272 74.955 69.6574 74.9272 69.4342C74.9133 69.3086 74.8646 69.4272 74.7881 69.797ZM76.3871 70.404C76.8181 70.5086 76.8459 70.5505 76.7486 70.8435C76.4844 71.6528 75.532 71.311 75.7475 70.4807C75.7962 70.3063 75.9143 70.2923 76.3871 70.404Z" fill="black"/>
<path d="M5.93669 69.8248C6.02011 69.9574 6.09658 70.5225 6.04792 70.6132C5.96449 70.7458 5.82546 70.6062 5.86022 70.4248C5.88107 70.3062 5.85327 70.2504 5.75594 70.2155C5.56824 70.1597 5.46396 70.2783 5.51958 70.4946C5.603 70.8225 6.38856 70.9342 6.46503 70.6272C6.49284 70.5086 6.52759 70.4876 6.60406 70.5365C6.81957 70.676 6.81957 70.5993 6.61102 70.383C6.48588 70.2574 6.37465 70.083 6.3538 69.9993C6.32599 69.9086 6.27038 69.8388 6.22171 69.8388C6.17305 69.8388 6.07572 69.8179 6.00621 69.7899C5.92974 69.762 5.90193 69.769 5.93669 69.8248Z" fill="black"/>
<path d="M74.1832 72.0086C74.1345 72.1691 74.1137 72.3156 74.1345 72.3365C74.1554 72.3574 74.1762 72.3365 74.1762 72.2946C74.1762 72.176 74.3709 72.19 74.8575 72.3574C75.3372 72.5179 75.4137 72.6365 75.2816 73.0133C75.1773 73.2854 75.2329 73.39 75.3998 73.2505C75.4832 73.1807 75.504 73.09 75.4693 72.8528C75.4345 72.5946 75.4484 72.5528 75.5318 72.5877C75.6153 72.6156 75.6361 72.5598 75.6361 72.3016C75.6361 72.0225 75.6222 71.9946 75.5527 72.0923C75.4693 72.2039 75.4276 72.2039 74.927 72.0295C74.6281 71.9318 74.3848 71.8202 74.3848 71.7853C74.3848 71.6179 74.2597 71.7574 74.1832 72.0086Z" fill="black"/>
<path d="M3.13547 72.3226C2.6975 72.518 2.1205 72.9715 2.20392 73.0482C2.23173 73.0761 2.46114 73.1668 2.70445 73.2506L3.15632 73.3971L3.33012 73.2296C3.43439 73.1389 3.64295 72.9994 3.79589 72.9226L4.08092 72.7761L4.20605 73.5017C4.27557 73.9064 4.35899 74.2343 4.39375 74.2343C4.47717 74.2343 4.46327 74.5413 4.36594 74.6669C4.31728 74.7297 4.12263 74.7924 3.93493 74.8204C3.74723 74.8413 3.57343 74.8831 3.55258 74.8971C3.53172 74.918 3.60819 75.0157 3.71942 75.1064C3.87931 75.239 4.0114 75.2739 4.28947 75.2808C4.68573 75.2808 4.79696 75.3785 4.79696 75.7204C4.79696 75.9227 4.68573 75.9785 4.26166 75.9785C3.95578 75.9785 3.94883 75.9855 4.06006 76.1111C4.12958 76.1878 4.31033 76.2576 4.49107 76.2785C4.88733 76.3204 5.05417 76.4739 5.10979 76.8367C5.1376 76.9972 5.17236 77.1855 5.19321 77.2623C5.22797 77.3809 5.19321 77.3879 4.79 77.339L4.34509 77.2902L4.50498 77.4646C4.59535 77.5623 4.75524 77.653 4.85257 77.6739C5.1654 77.7367 5.39481 77.9739 5.49214 78.3158C5.5408 78.4902 5.61727 78.6297 5.65898 78.6297C5.70765 78.6297 5.78412 78.7484 5.83278 78.8879C5.8884 79.0344 5.94401 79.1879 5.95791 79.2298C5.98572 79.2995 4.95685 79.8158 3.26755 80.5693L2.82263 80.7647L3.41354 80.8833L4.00445 81.0019L5.79802 80.1716C6.77823 79.7181 7.59855 79.3274 7.61245 79.3135C7.69588 79.2298 7.11887 77.946 6.90337 77.7227C6.75042 77.5623 6.68091 77.4297 6.70176 77.346C6.76433 77.1158 6.59748 76.439 6.41674 76.1599C6.28465 75.9576 6.24989 75.832 6.2777 75.6576C6.33331 75.3366 6.20818 74.9529 6.02048 74.8204C5.86754 74.7227 5.86059 74.7017 5.95096 74.5203C6.04829 74.332 6.00658 73.9971 5.83973 73.6413C5.80497 73.5645 5.7285 73.2296 5.67289 72.8878C5.61727 72.5529 5.54776 72.2459 5.5269 72.211C5.49909 72.1691 5.06808 72.1412 4.49803 72.1482C3.60124 72.1482 3.47611 72.1622 3.13547 72.3226Z" fill="black"/>
<path d="M80.0643 73.6761L79.8975 74.3529L85.7718 75.8669C88.9974 76.6971 91.66 77.3669 91.6739 77.346C91.7504 77.2762 92.0354 76.0831 91.9867 76.0413C91.9589 76.0203 90.3113 75.5808 88.3231 75.0715C86.3349 74.5622 83.7001 73.8854 82.4696 73.5715L80.2381 72.9993L80.0643 73.6761Z" fill="black"/>
<path d="M73.8982 73.3133C73.641 73.4389 73.342 73.9203 73.342 74.2133C73.342 74.4785 73.5228 74.8413 73.7174 74.9668C74.2875 75.3436 75.0105 74.8413 75.0105 74.0738C75.0105 73.6761 74.8575 73.411 74.5447 73.2854C74.2527 73.1598 74.1902 73.1598 73.8982 73.3133ZM74.649 73.725C74.9201 73.8924 74.9896 74.1366 74.8436 74.4087C74.6837 74.7017 74.3848 74.8203 74.0442 74.7227C73.5228 74.5761 73.3351 74.1575 73.6201 73.7947C73.8356 73.5226 74.2875 73.4947 74.649 73.725Z" fill="black"/>
<path d="M0.827299 73.6621L0.583984 74.0668L0.98024 74.29C1.2027 74.4156 1.39735 74.5133 1.41125 74.5133C1.47382 74.5133 1.72409 74.0668 1.77275 73.8714C1.81446 73.711 1.78665 73.6621 1.52944 73.5017C1.08452 73.2226 1.08452 73.2226 0.827299 73.6621Z" fill="black"/>
<path d="M72.8693 75.2529C72.7372 75.518 72.7302 75.5668 72.8206 75.5319C72.8832 75.511 73.1682 75.6157 73.488 75.7692L74.0372 76.0482L73.8286 76.418C73.7174 76.6134 73.5923 76.7878 73.5575 76.8017C73.5158 76.8157 73.2655 76.6971 72.9944 76.5366C72.6259 76.3203 72.5078 76.2157 72.5078 76.0971C72.5078 75.9854 72.4522 76.0413 72.2992 76.3064C72.0628 76.718 72.042 76.8087 72.2019 76.6413C72.3201 76.5227 72.2366 76.4878 73.2308 77.0669L73.5366 77.2413L73.8286 76.6831C73.9885 76.3692 74.1484 76.118 74.1762 76.118C74.211 76.118 74.3291 76.2017 74.4473 76.2994C74.7254 76.5296 74.7393 76.8227 74.4821 77.0041C74.3848 77.0738 74.2318 77.1924 74.1554 77.2692L74.0024 77.4087L74.1623 77.4297C74.3639 77.4576 74.496 77.3529 74.6698 77.018C74.8783 76.5924 74.8436 76.2854 74.5516 75.9924C74.3361 75.7761 74.3152 75.7203 74.3778 75.5808C74.4265 75.4692 74.4265 75.4203 74.3778 75.4203C74.3361 75.4203 74.2874 75.4831 74.2666 75.5599C74.2457 75.6366 74.204 75.6994 74.1693 75.6994C74.0024 75.6994 73.1195 75.1901 73.0778 75.0645C73.0292 74.9459 73.0013 74.9738 72.8693 75.2529Z" fill="black"/>
<path d="M71.6178 77.4157C71.4996 77.4994 71.4648 77.5832 71.4718 77.8134C71.4787 78.0436 71.4926 78.0715 71.5274 77.939C71.6178 77.6111 71.7499 77.6111 72.2504 77.932C72.5076 78.0925 72.7162 78.2529 72.7162 78.2878C72.7162 78.3227 72.6675 78.4343 72.6049 78.525C72.5424 78.6227 72.5215 78.6995 72.5632 78.6995C72.598 78.6995 72.6814 78.6157 72.7509 78.5181C72.8622 78.3506 72.8761 78.3436 73.029 78.4483C73.2932 78.6227 73.3557 78.5878 73.2306 78.3436C73.168 78.2181 73.1333 78.0227 73.1472 77.8832C73.175 77.646 73.175 77.646 73.0568 77.7994L72.9386 77.9529L72.4172 77.632C72.1322 77.4506 71.868 77.3041 71.8333 77.3041C71.7985 77.3041 71.7012 77.3529 71.6178 77.4157Z" fill="black"/>
<path d="M79.2304 77.4925C79.154 77.6251 78.8203 78.7135 78.8481 78.7344C78.9245 78.8111 100.135 85.6764 100.204 85.6555C100.274 85.6276 100.684 84.4136 100.642 84.3787C100.614 84.3578 79.3417 77.4437 79.2999 77.4437C79.2791 77.4437 79.2443 77.4646 79.2304 77.4925Z" fill="black"/>
<path d="M70.596 78.1903C70.6516 79.2438 71.3259 79.8926 72.2644 79.7949C72.5773 79.767 73.2029 79.5228 73.2029 79.4391C73.2029 79.4252 73.05 79.4601 72.8553 79.5228C72.5356 79.6205 72.4799 79.6205 72.1462 79.5159C71.4302 79.2856 70.7976 78.6507 70.6377 78.0019C70.5682 77.7019 70.5682 77.7088 70.596 78.1903Z" fill="black"/>
<path d="M8.02944 80.1645C7.41768 80.2971 6.90324 80.5553 6.3749 81.0018C6.20806 81.1343 5.87437 81.6227 5.8118 81.8041C5.77009 81.9367 5.7979 81.9437 6.3749 81.9088L6.98667 81.8739L7.30645 81.3995C7.77918 80.6948 7.79308 80.6878 8.07115 80.8274C8.52998 81.0576 9.10698 81.8599 9.10698 82.2506C9.10698 82.5088 8.83586 82.8786 8.56473 82.9972C8.41875 83.06 8.09201 83.1507 7.82089 83.1995C7.38987 83.2762 7.35511 83.2902 7.53586 83.339C7.77918 83.4088 8.84976 83.3321 9.1765 83.2274C10.3444 82.8576 10.685 82.3413 10.3514 81.4762C10.1776 81.0297 9.88559 80.6808 9.392 80.3459C9.06527 80.1157 8.55083 80.0529 8.02944 80.1645Z" fill="black"/>
<path d="M77.3256 81.8879C77.3047 81.9577 77.1935 82.2298 77.0892 82.5019C76.9849 82.767 76.9223 83.0112 76.9432 83.0391C77.0266 83.1228 88.9351 87.6997 88.9838 87.6648C89.0464 87.6299 89.4913 86.4438 89.4635 86.4089C89.4148 86.3671 77.4924 81.7693 77.4298 81.7693C77.3951 81.7693 77.3534 81.8251 77.3256 81.8879Z" fill="black"/>
<path d="M5.26281 83.0042C5.24196 83.0739 5.2072 83.2204 5.17939 83.339C5.15853 83.4507 5.12377 83.6042 5.10292 83.667C5.06816 83.7856 5.13768 83.8135 5.79115 83.96C6.00666 84.0088 6.06227 83.9181 6.1457 83.3949L6.19436 83.1088L5.81896 82.9972C5.33928 82.8576 5.29757 82.8576 5.26281 83.0042Z" fill="black"/>
<path d="M10.0315 84.281C9.88547 84.3717 9.78814 84.4973 9.73948 84.6787C9.58654 85.2298 9.66996 85.3973 10.094 85.3973C10.3721 85.3973 10.4486 85.2996 10.2192 85.2368C10.1357 85.2159 10.0801 85.1391 10.0801 85.0554C10.0801 84.867 10.1079 84.874 10.3165 85.0833C10.6015 85.3694 10.8101 85.3136 11.3036 84.8391C11.6304 84.5182 11.7069 84.4205 11.5956 84.4205C11.4566 84.4205 11.1368 84.6996 11.0047 84.9438C10.9282 85.0763 10.9213 85.0763 10.7405 84.9089C10.6363 84.8112 10.4833 84.6019 10.3999 84.4414L10.2539 84.1414L10.0315 84.281Z" fill="black"/>
<path d="M10.8519 85.9415C10.7616 86.1159 10.9075 86.3322 11.0952 86.2903C11.2968 86.2554 11.2829 85.8578 11.0744 85.8299C10.984 85.8159 10.8936 85.8578 10.8519 85.9415Z" fill="black"/>
<path d="M75.7127 86.4369C75.518 86.7439 75.3582 87.023 75.3582 87.0509C75.3582 87.1067 85.3966 93.5115 85.5426 93.5464C85.6121 93.5603 86.3838 92.451 86.3282 92.4091C86.3143 92.4022 84.0688 90.9719 81.3367 89.2347C78.6047 87.4974 76.2967 86.0323 76.2202 85.9764C76.0742 85.8857 76.0533 85.9067 75.7127 86.4369Z" fill="black"/>
<path d="M12.2352 86.0601C12.2352 86.0741 12.3603 86.2834 12.5132 86.5206C12.9651 87.2183 12.9651 87.6718 12.5271 87.9299C12.3116 88.0625 12.2838 88.0625 11.9919 87.9439C11.8181 87.8811 11.533 87.6927 11.3523 87.5322C11.0603 87.2671 10.9977 87.2392 10.8309 87.295L10.6501 87.3578L10.956 87.8602C11.4079 88.6067 11.7138 88.816 12.0266 88.6067C12.117 88.5439 12.1031 88.509 11.9432 88.3904C11.6651 88.1881 11.6999 88.1323 12.0822 88.1741C12.7287 88.2299 13.3197 87.7485 13.3058 87.1694C13.2988 86.8555 13.0416 86.3322 12.8678 86.2834C12.8052 86.2624 12.6384 86.1997 12.4993 86.1369C12.3533 86.0741 12.2352 86.0392 12.2352 86.0601Z" fill="black"/>
<path d="M10.5669 88.3416C10.5669 88.5579 10.6642 88.7463 10.7685 88.7463C10.9631 88.7463 11.0396 88.6486 11.0049 88.4463C10.9771 88.2928 10.9284 88.2579 10.7685 88.2579C10.6503 88.2579 10.5669 88.2928 10.5669 88.3416Z" fill="black"/>
<path d="M14.6059 89.0322C13.5284 89.2136 12.715 90.0369 12.6038 91.0555C12.576 91.3764 12.5829 91.4741 12.6385 91.4392C12.6872 91.4113 12.722 91.3485 12.722 91.3067C12.722 91.2578 12.8123 91.0346 12.9166 90.8043C13.1947 90.2183 13.8551 89.6113 14.5503 89.3043C14.8492 89.1787 15.0856 89.0462 15.0856 89.0113C15.0856 88.9834 15.0647 88.9624 15.0369 88.9624C15.0022 88.9694 14.8145 88.9973 14.6059 89.0322Z" fill="black"/>
<path d="M73.328 89.8416C73.1125 90.1417 72.9596 90.4068 72.9804 90.4277C73.043 90.4835 91.0135 103.565 91.1108 103.628C91.1943 103.677 91.9172 102.756 91.9311 102.588C91.9381 102.512 73.8772 89.3044 73.766 89.3044C73.7382 89.3044 73.5366 89.5486 73.328 89.8416Z" fill="black"/>
<path d="M14.0775 90.5882L13.8689 90.6789L14.2999 90.951C14.6684 91.1813 14.7379 91.265 14.8143 91.5231C14.8561 91.6836 14.8769 91.8371 14.8561 91.858C14.7796 91.9348 14.3972 91.6766 14.1539 91.3836L13.9037 91.0836V91.3348C13.9037 92.0324 14.9464 92.3673 15.1689 91.7394C15.2315 91.551 15.2523 91.5371 15.3427 91.6278C15.4331 91.7185 15.4331 91.7534 15.3357 91.9417C15.2732 92.0603 15.2245 92.2208 15.2245 92.3045C15.2245 92.4301 15.2384 92.4371 15.3635 92.3604C15.44 92.3115 15.5026 92.1999 15.5026 92.1162C15.5026 91.872 15.6208 91.865 15.9197 92.1022C16.1839 92.3185 16.1908 92.3324 16.1491 92.6464L16.1074 92.9673L16.2742 92.8487C16.3646 92.7859 16.4341 92.6883 16.4202 92.6185C16.4063 92.5557 16.448 92.4301 16.5106 92.3324C16.601 92.1859 16.6705 92.165 17.0389 92.165C17.5186 92.165 17.6855 92.2348 17.8175 92.4929C17.8732 92.5906 17.9357 92.6394 17.9566 92.6045C17.9844 92.5627 17.9149 92.3604 17.8106 92.158L17.6229 91.7813L17.1919 91.7882C16.9555 91.7882 16.7122 91.8301 16.6566 91.8789C16.5315 91.9836 16.4897 91.9557 15.9266 91.4673C15.5721 91.1534 14.4946 90.4905 14.3555 90.4905C14.3208 90.4975 14.1956 90.5394 14.0775 90.5882Z" fill="black"/>
<path d="M16.2115 91.0555C15.9821 91.1462 16.0377 91.3695 16.281 91.3486C16.4131 91.3416 16.4826 91.3765 16.5104 91.4672C16.5521 91.6067 16.8233 91.5858 16.8233 91.4393C16.8233 91.2858 16.7051 91.1811 16.5939 91.23C16.5174 91.2579 16.4618 91.23 16.427 91.1323C16.3784 91.0207 16.3366 91.0067 16.2115 91.0555Z" fill="black"/>
<path d="M13.7506 92.1091C13.5629 92.1719 13.5629 92.1789 13.6672 92.3812C13.7506 92.5486 13.7993 92.5835 13.9244 92.5417C14.1399 92.4789 14.1469 92.4649 14.0357 92.2417C13.9522 92.0672 13.9175 92.0533 13.7506 92.1091Z" fill="black"/>
<path d="M70.2208 93.33C69.8732 93.7626 69.8106 93.8812 69.8801 93.944C69.9566 94.0208 79.5849 101.863 79.7796 102.016C79.8282 102.051 80.009 101.884 80.294 101.542C80.6555 101.102 80.7111 100.998 80.6346 100.921C80.5095 100.802 70.8117 92.8975 70.7213 92.8417C70.6796 92.8138 70.4571 93.037 70.2208 93.33Z" fill="black"/>
<path d="M19.1944 93.3719C18.8746 93.4836 18.4922 94.0138 18.4436 94.4185L18.4019 94.7115L18.5896 94.544C18.7147 94.4254 18.7703 94.2998 18.7703 94.1464C18.7703 93.8603 18.9093 93.7766 19.4307 93.7208C19.7783 93.6859 19.82 93.6929 20.0286 93.9022C20.2928 94.1673 20.3484 94.1464 20.1954 93.8254C19.9243 93.2952 19.7019 93.1975 19.1944 93.3719Z" fill="black"/>
<path d="M20.6328 94.1394C20.5285 94.2231 20.5285 94.244 20.6397 94.3906C20.744 94.5301 20.7857 94.5441 20.9109 94.4743C21.0847 94.3836 21.0916 94.3696 20.9943 94.1813C20.9109 94.0278 20.7996 94.0138 20.6328 94.1394Z" fill="black"/>
<path d="M20.0004 94.851C19.8962 95.0673 19.8127 95.3394 19.8127 95.458C19.8127 95.6673 19.8197 95.6743 19.9448 95.5487C20.0213 95.4859 20.0908 95.3254 20.1047 95.1998L20.1256 94.9696L20.5774 95.2277C20.9807 95.451 21.0502 95.5278 21.2379 95.9115C21.5229 96.4906 21.5924 96.5603 21.9052 96.5603C22.232 96.5603 22.3154 96.4487 22.0721 96.3371C21.9261 96.2673 21.6202 95.8975 21.6202 95.7719C21.6202 95.758 21.8566 95.8347 22.1416 95.9533L22.663 96.1696L22.6213 96.4348C22.5587 96.7906 22.6282 96.958 22.7742 96.8324C22.8507 96.7696 22.8716 96.6789 22.8368 96.5115C22.7881 96.2254 22.8229 96.2254 23.4625 96.4766L23.9491 96.672V96.9789C23.9491 97.1534 23.9213 97.4464 23.8935 97.6418L23.8448 97.9906L23.9978 97.8092C24.0881 97.7045 24.2689 97.5859 24.4079 97.5441C24.54 97.5022 24.7555 97.3557 24.8876 97.2231L25.117 96.9859L24.8598 96.8603C24.6512 96.7627 24.5678 96.7557 24.394 96.8185C24.1855 96.9022 24.1855 96.9022 24.2272 96.6929C24.2967 96.365 24.1298 96.1906 23.5876 96.0022C22.9689 95.7929 21.6758 95.2277 20.8903 94.8231C20.5496 94.6487 20.2507 94.4952 20.2299 94.4812C20.209 94.4742 20.1047 94.6417 20.0004 94.851ZM24.5052 97.1952C24.5678 97.2859 24.547 97.3069 24.3036 97.3697C24.1229 97.4115 24.1159 97.4045 24.1855 97.265C24.2689 97.1115 24.4357 97.0696 24.5052 97.1952Z" fill="black"/>
<path d="M23.136 95.3324C23.0318 95.4092 23.0318 95.444 23.1082 95.5487C23.1778 95.6464 23.2264 95.6603 23.3307 95.5975C23.428 95.5417 23.4906 95.5487 23.5671 95.6185C23.6574 95.6952 23.6922 95.6952 23.8034 95.6185C23.9146 95.5347 23.9216 95.4999 23.8451 95.4092C23.7965 95.3464 23.6991 95.3185 23.6018 95.3464C23.5114 95.3673 23.4211 95.3533 23.4002 95.3115C23.3376 95.2138 23.282 95.2208 23.136 95.3324Z" fill="black"/>
<path d="M25.9093 96.037C25.9719 97.0277 25.7008 97.8371 25.0751 98.5557C24.8944 98.765 24.8387 98.8627 24.9152 98.8627C25.1099 98.8627 25.7425 98.2766 25.958 97.8859C26.1596 97.5231 26.1735 97.4603 26.1735 96.7696C26.1735 96.1556 26.1457 95.9882 26.0206 95.7231L25.8676 95.4091L25.9093 96.037Z" fill="black"/>
<path d="M67.586 96.7766C67.1271 97.1604 67.0854 97.2162 67.1688 97.3348C67.3426 97.579 74.7672 106.6 74.802 106.6C74.8367 106.607 75.8308 105.812 75.8656 105.749C75.8865 105.721 68.1769 96.351 68.1282 96.351C68.1073 96.351 67.864 96.5464 67.586 96.7766Z" fill="black"/>
<path d="M23.5254 98.4023C23.4002 98.4999 23.4002 98.5139 23.5114 98.6255C23.6296 98.7441 23.6366 98.7441 23.7756 98.6185C23.9008 98.4999 23.9286 98.4999 24.0398 98.6046C24.1441 98.6953 24.1719 98.7023 24.297 98.6116C24.4221 98.5209 24.4221 98.5069 24.3109 98.3953C24.2066 98.2906 24.1719 98.2837 24.0467 98.3674C23.9425 98.4302 23.8799 98.4371 23.8243 98.3813C23.727 98.2837 23.6922 98.2837 23.5254 98.4023Z" fill="black"/>
<path d="M63.7624 99.393C63.4079 99.6651 63.2758 99.8047 63.3105 99.8674C63.4843 100.167 76.4426 118.049 76.4912 118.049C76.6233 118.049 77.5757 117.31 77.5479 117.226C77.4784 117.045 64.4089 99.0023 64.3394 99.0093C64.3047 99.0093 64.0405 99.1837 63.7624 99.393Z" fill="black"/>
<path d="M59.786 101.73C59.501 101.919 59.2576 102.1 59.2437 102.142C59.2298 102.184 60.794 104.654 62.7127 107.647L66.2095 113.075L66.7517 112.726C67.0507 112.537 67.3079 112.363 67.3287 112.328C67.3565 112.279 60.5576 101.64 60.3838 101.472C60.3282 101.416 60.1753 101.479 59.786 101.73Z" fill="black"/>
<path d="M56.1573 104.214L55.5525 104.465L55.6846 104.786C55.7541 104.961 56.7552 107.507 57.9092 110.444C59.0632 113.382 60.0225 115.796 60.0364 115.81C60.0642 115.838 61.1835 115.405 61.2669 115.328C61.3295 115.272 56.9081 104.005 56.8177 103.984C56.7899 103.977 56.491 104.081 56.1573 104.214Z" fill="black"/>
<path d="M52.1112 105.763C51.8053 105.868 51.5481 105.986 51.5342 106.028C51.5134 106.084 58.3679 127.356 58.4374 127.461C58.4513 127.468 58.7502 127.384 59.1117 127.266L59.7722 127.042L59.2716 125.494C55.6011 114.128 52.7925 105.561 52.7299 105.568C52.6952 105.568 52.4102 105.658 52.1112 105.763Z" fill="black"/>
<path d="M47.4673 106.761C47.1614 106.837 46.925 106.942 46.925 106.991C46.925 107.089 50.1924 119.466 50.2272 119.507C50.2411 119.521 50.547 119.452 50.9015 119.354C51.4507 119.207 51.548 119.166 51.5272 119.054C51.4994 118.921 48.5309 107.64 48.3432 106.97C48.225 106.551 48.2459 106.558 47.4673 106.761Z" fill="black"/>
<path d="M43.2611 107.982L42.7537 108.009V108.268C42.7537 108.407 42.9136 111.086 43.1013 114.212C43.2959 117.338 43.4488 119.975 43.4488 120.066C43.4488 120.233 43.4488 120.233 44.1093 120.198C44.4777 120.177 44.7906 120.142 44.8184 120.121C44.8392 120.093 44.7002 117.414 44.4986 114.163C44.3039 110.905 44.144 108.177 44.144 108.086C44.144 107.961 44.1093 107.933 43.9563 107.947C43.8451 107.954 43.5323 107.975 43.2611 107.982Z" fill="black"/>
<path d="M37.4011 120.107V132.073H38.0963H38.7915V120.107V108.142H38.0963H37.4011V120.107Z" fill="black"/>
<path d="M115.4 61V48.3104H121.399C121.993 48.3104 122.526 48.4134 122.999 48.6194C123.472 48.8133 123.872 49.086 124.199 49.4375C124.538 49.789 124.799 50.2193 124.981 50.7283C125.163 51.2252 125.253 51.7706 125.253 52.3645C125.253 52.9705 125.163 53.522 124.981 54.0189C124.799 54.5158 124.538 54.94 124.199 55.2915C123.872 55.643 123.472 55.9217 122.999 56.1278C122.526 56.3217 121.993 56.4186 121.399 56.4186H118.163V61H115.4ZM118.163 54.0189H121.072C121.484 54.0189 121.805 53.9159 122.036 53.7098C122.278 53.4917 122.399 53.1765 122.399 52.7645V51.9645C122.399 51.5525 122.278 51.2434 122.036 51.0374C121.805 50.8192 121.484 50.7101 121.072 50.7101H118.163V54.0189ZM133.816 61L132.907 57.9821H128.671L127.762 61H124.963L129.144 48.3104H132.562L136.689 61H133.816ZM130.817 50.8192H130.726L129.326 55.6369H132.235L130.817 50.8192ZM138.444 61V48.3104H141.208V58.5457H146.044V61H138.444ZM148.085 61V48.3104H156.72V50.7647H150.848V53.3644H155.884V55.8005H150.848V58.5457H156.72V61H148.085ZM163.236 61.2182C162.121 61.2182 161.176 61.0303 160.4 60.6546C159.625 60.2667 158.964 59.7698 158.419 59.1638L160.237 57.3276C161.097 58.2972 162.158 58.782 163.418 58.782C164.097 58.782 164.6 58.6427 164.927 58.3639C165.254 58.0851 165.418 57.7155 165.418 57.2549C165.418 56.9034 165.321 56.6126 165.127 56.3823C164.933 56.1399 164.539 55.9763 163.945 55.8914L162.691 55.7278C161.346 55.5581 160.358 55.1521 159.728 54.5097C159.11 53.8674 158.8 53.0129 158.8 51.9464C158.8 51.3767 158.91 50.8556 159.128 50.3829C159.346 49.9102 159.655 49.5042 160.055 49.1648C160.467 48.8255 160.964 48.5649 161.546 48.3831C162.14 48.1892 162.812 48.0922 163.564 48.0922C164.521 48.0922 165.363 48.2437 166.091 48.5467C166.818 48.8497 167.442 49.2921 167.963 49.8738L166.127 51.7282C165.824 51.3767 165.454 51.0919 165.018 50.8737C164.594 50.6435 164.055 50.5283 163.4 50.5283C162.782 50.5283 162.321 50.6374 162.018 50.8556C161.715 51.0737 161.564 51.3767 161.564 51.7646C161.564 52.2009 161.679 52.516 161.909 52.7099C162.152 52.9038 162.54 53.0432 163.073 53.1281L164.327 53.328C165.636 53.5341 166.606 53.9401 167.236 54.5461C167.866 55.14 168.181 55.9884 168.181 57.0913C168.181 57.6973 168.072 58.2548 167.854 58.7639C167.636 59.2729 167.315 59.7092 166.891 60.0728C166.479 60.4364 165.963 60.7212 165.345 60.9273C164.727 61.1212 164.024 61.2182 163.236 61.2182ZM175.337 50.7647V61H172.573V50.7647H169.137V48.3104H178.773V50.7647H175.337ZM180.101 61V58.8002H181.738V50.5101H180.101V48.3104H186.137V50.5101H184.501V58.8002H186.137V61H180.101ZM192.312 55.0006L191.094 52.4554H191.039V61H188.439V48.3104H191.457L194.93 54.3098L196.148 56.855H196.202V48.3104H198.802V61H195.784L192.312 55.0006ZM201.104 61V58.8002H202.74V50.5101H201.104V48.3104H207.14V50.5101H205.504V58.8002H207.14V61H201.104ZM217.26 61L216.351 57.9821H212.115L211.206 61H208.406L212.587 48.3104H216.005L220.132 61H217.26ZM214.26 50.8192H214.169L212.769 55.6369H215.678L214.26 50.8192ZM225.76 55.0006L224.542 52.4554H224.488V61H221.888V48.3104H224.906L228.378 54.3098L229.596 56.855H229.651V48.3104H232.25V61H229.233L225.76 55.0006ZM244.467 61.2182C243.606 61.2182 242.83 61.0848 242.14 60.8182C241.449 60.5394 240.861 60.1334 240.376 59.6001C239.891 59.0547 239.516 58.3821 239.249 57.5822C238.982 56.7701 238.849 55.8248 238.849 54.7461C238.849 53.6795 238.982 52.7342 239.249 51.91C239.516 51.0737 239.891 50.3768 240.376 49.8193C240.861 49.2497 241.449 48.8194 242.14 48.5285C242.83 48.2376 243.606 48.0922 244.467 48.0922C245.642 48.0922 246.612 48.3346 247.375 48.8194C248.139 49.2921 248.751 50.0435 249.212 51.0737L246.83 52.31C246.66 51.7767 246.394 51.3525 246.03 51.0374C245.679 50.7101 245.157 50.5465 244.467 50.5465C243.655 50.5465 243 50.8131 242.503 51.3464C242.018 51.8676 241.776 52.6311 241.776 53.6371V55.6733C241.776 56.6792 242.018 57.4488 242.503 57.9821C243 58.5033 243.655 58.7639 244.467 58.7639C245.145 58.7639 245.685 58.5821 246.085 58.2185C246.497 57.8427 246.8 57.3943 246.994 56.8731L249.248 58.1821C248.775 59.1517 248.151 59.9031 247.375 60.4364C246.612 60.9576 245.642 61.2182 244.467 61.2182ZM251.182 61V48.3104H259.817V50.7647H253.945V53.3644H258.981V55.8005H253.945V58.5457H259.817V61H251.182ZM266.097 55.0006L264.879 52.4554H264.824V61H262.225V48.3104H265.243L268.715 54.3098L269.933 56.855H269.988V48.3104H272.587V61H269.569L266.097 55.0006ZM280.671 50.7647V61H277.907V50.7647H274.471V48.3104H284.107V50.7647H280.671ZM288.761 61H285.997V48.3104H292.015C292.596 48.3104 293.124 48.4073 293.596 48.6012C294.069 48.7952 294.469 49.0739 294.796 49.4375C295.136 49.789 295.396 50.2132 295.578 50.7101C295.76 51.207 295.851 51.7585 295.851 52.3645C295.851 53.225 295.657 53.9765 295.269 54.6188C294.893 55.2612 294.318 55.7278 293.542 56.0187L296.033 61H292.96L290.742 56.3459H288.761V61ZM291.669 54.0189C292.081 54.0189 292.403 53.9159 292.633 53.7098C292.875 53.4917 292.996 53.1765 292.996 52.7645V51.9645C292.996 51.5525 292.875 51.2434 292.633 51.0374C292.403 50.8192 292.081 50.7101 291.669 50.7101H288.761V54.0189H291.669ZM298.247 61V48.3104H306.883V50.7647H301.011V53.3644H306.047V55.8005H301.011V58.5457H306.883V61H298.247Z" fill="black"/>
<path d="M115.4 85V72.3104H123.817V74.7647H118.163V77.3644H122.981V79.8005H118.163V85H115.4ZM131.665 85.2182C130.829 85.2182 130.065 85.0788 129.375 84.8C128.684 84.5213 128.096 84.1092 127.611 83.5638C127.126 83.0063 126.751 82.3215 126.484 81.5094C126.217 80.6853 126.084 79.7339 126.084 78.6552C126.084 77.5765 126.217 76.6311 126.484 75.8191C126.751 74.9949 127.126 74.3102 127.611 73.7648C128.096 73.2072 128.684 72.7891 129.375 72.5103C130.065 72.2316 130.829 72.0922 131.665 72.0922C132.502 72.0922 133.265 72.2316 133.956 72.5103C134.647 72.7891 135.235 73.2072 135.719 73.7648C136.204 74.3102 136.58 74.9949 136.847 75.8191C137.113 76.6311 137.247 77.5765 137.247 78.6552C137.247 79.7339 137.113 80.6853 136.847 81.5094C136.58 82.3215 136.204 83.0063 135.719 83.5638C135.235 84.1092 134.647 84.5213 133.956 84.8C133.265 85.0788 132.502 85.2182 131.665 85.2182ZM131.665 82.7639C132.502 82.7639 133.15 82.4912 133.611 81.9458C134.083 81.4004 134.32 80.6186 134.32 79.6005V77.7098C134.32 76.6917 134.083 75.91 133.611 75.3646C133.15 74.8192 132.502 74.5465 131.665 74.5465C130.829 74.5465 130.175 74.8192 129.702 75.3646C129.241 75.91 129.011 76.6917 129.011 77.7098V79.6005C129.011 80.6186 129.241 81.4004 129.702 81.9458C130.175 82.4912 130.829 82.7639 131.665 82.7639ZM143.407 85H140.644V72.3104H146.661C147.243 72.3104 147.77 72.4073 148.243 72.6012C148.716 72.7952 149.116 73.0739 149.443 73.4375C149.782 73.789 150.043 74.2132 150.225 74.7101C150.406 75.207 150.497 75.7585 150.497 76.3645C150.497 77.225 150.303 77.9765 149.916 78.6188C149.54 79.2612 148.964 79.7278 148.188 80.0187L150.679 85H147.607L145.389 80.3459H143.407V85ZM146.316 78.0189C146.728 78.0189 147.049 77.9159 147.279 77.7098C147.522 77.4917 147.643 77.1765 147.643 76.7645V75.9645C147.643 75.5525 147.522 75.2434 147.279 75.0374C147.049 74.8192 146.728 74.7101 146.316 74.7101H143.407V78.0189H146.316ZM166.971 79.8005H162.135V85H159.372V72.3104H162.135V77.3644H166.971V72.3104H169.735V85H166.971V79.8005ZM176.236 72.3104V80.0914C176.236 80.9883 176.412 81.6609 176.764 82.1094C177.115 82.5457 177.703 82.7639 178.527 82.7639C179.351 82.7639 179.939 82.5457 180.291 82.1094C180.642 81.6609 180.818 80.9883 180.818 80.0914V72.3104H183.508V79.8005C183.508 80.7338 183.417 81.5458 183.236 82.2366C183.066 82.9154 182.781 83.4789 182.381 83.9274C181.981 84.3637 181.466 84.6909 180.836 84.9091C180.206 85.1151 179.436 85.2182 178.527 85.2182C177.618 85.2182 176.848 85.1151 176.218 84.9091C175.588 84.6909 175.073 84.3637 174.673 83.9274C174.273 83.4789 173.982 82.9154 173.8 82.2366C173.631 81.5458 173.546 80.7338 173.546 79.8005V72.3104H176.236ZM196.822 76.6736H196.768L195.841 78.5279L193.368 83.0184L190.95 78.5461L189.987 76.5463H189.932V85H187.332V72.3104H190.259L193.368 78.2552H193.404L196.477 72.3104H199.422V85H196.822V76.6736ZM211.136 85L210.227 81.9821H205.991L205.082 85H202.282L206.464 72.3104H209.882L214.008 85H211.136ZM208.136 74.8192H208.045L206.646 79.6369H209.554L208.136 74.8192ZM220.727 79.0006L219.509 76.4554H219.455V85H216.855V72.3104H219.873L223.345 78.3098L224.563 80.855H224.618V72.3104H227.218V85H224.2L220.727 79.0006ZM239.252 85H236.489V72.3104H242.506C243.088 72.3104 243.615 72.4073 244.088 72.6012C244.561 72.7952 244.96 73.0739 245.288 73.4375C245.627 73.789 245.888 74.2132 246.069 74.7101C246.251 75.207 246.342 75.7585 246.342 76.3645C246.342 77.225 246.148 77.9765 245.76 78.6188C245.385 79.2612 244.809 79.7278 244.033 80.0187L246.524 85H243.452L241.234 80.3459H239.252V85ZM242.161 78.0189C242.573 78.0189 242.894 77.9159 243.124 77.7098C243.367 77.4917 243.488 77.1765 243.488 76.7645V75.9645C243.488 75.5525 243.367 75.2434 243.124 75.0374C242.894 74.8192 242.573 74.7101 242.161 74.7101H239.252V78.0189H242.161ZM249.339 85V82.8002H250.975V74.5101H249.339V72.3104H255.374V74.5101H253.738V82.8002H255.374V85H249.339ZM266.821 82.982H266.73C266.634 83.6244 266.306 84.1577 265.749 84.5819C265.191 85.0061 264.434 85.2182 263.476 85.2182C262.749 85.2182 262.07 85.0788 261.44 84.8C260.81 84.5213 260.258 84.1092 259.786 83.5638C259.313 83.0184 258.943 82.3397 258.677 81.5276C258.41 80.7156 258.277 79.7763 258.277 78.7097C258.277 77.6432 258.416 76.6978 258.695 75.8736C258.974 75.0495 259.362 74.3586 259.858 73.8011C260.367 73.2436 260.973 72.8194 261.676 72.5285C262.379 72.2376 263.161 72.0922 264.022 72.0922C265.161 72.0922 266.143 72.3407 266.967 72.8376C267.791 73.3224 268.439 74.0556 268.912 75.0374L266.658 76.3281C266.464 75.8312 266.161 75.4131 265.749 75.0737C265.337 74.7222 264.761 74.5465 264.022 74.5465C263.161 74.5465 262.476 74.795 261.967 75.2919C261.458 75.7888 261.204 76.5705 261.204 77.6371V79.6733C261.204 80.7277 261.458 81.5094 261.967 82.0185C262.476 82.5154 263.161 82.7639 264.022 82.7639C264.361 82.7639 264.682 82.7275 264.985 82.6548C265.288 82.5699 265.555 82.4487 265.785 82.2912C266.015 82.1215 266.191 81.9215 266.312 81.6912C266.446 81.461 266.512 81.1883 266.512 80.8731V80.2368H264.149V77.928H269.148V85H266.821V82.982ZM280.525 79.8005H275.689V85H272.925V72.3104H275.689V77.3644H280.525V72.3104H283.288V85H280.525V79.8005ZM292.462 74.7647V85H289.699V74.7647H286.263V72.3104H295.898V74.7647H292.462ZM302.775 85.2182C301.66 85.2182 300.715 85.0303 299.939 84.6546C299.163 84.2667 298.503 83.7698 297.957 83.1638L299.775 81.3276C300.636 82.2972 301.696 82.782 302.957 82.782C303.636 82.782 304.139 82.6427 304.466 82.3639C304.793 82.0851 304.957 81.7155 304.957 81.2549C304.957 80.9034 304.86 80.6126 304.666 80.3823C304.472 80.1399 304.078 79.9763 303.484 79.8914L302.23 79.7278C300.884 79.5581 299.897 79.1521 299.266 78.5097C298.648 77.8674 298.339 77.0129 298.339 75.9464C298.339 75.3767 298.448 74.8556 298.666 74.3829C298.884 73.9102 299.194 73.5042 299.594 73.1648C300.006 72.8255 300.503 72.5649 301.084 72.3831C301.678 72.1892 302.351 72.0922 303.102 72.0922C304.06 72.0922 304.902 72.2437 305.629 72.5467C306.356 72.8497 306.981 73.2921 307.502 73.8738L305.666 75.7282C305.363 75.3767 304.993 75.0919 304.557 74.8737C304.132 74.6435 303.593 74.5283 302.939 74.5283C302.321 74.5283 301.86 74.6374 301.557 74.8556C301.254 75.0737 301.102 75.3767 301.102 75.7646C301.102 76.2009 301.218 76.516 301.448 76.7099C301.69 76.9038 302.078 77.0432 302.611 77.1281L303.866 77.328C305.175 77.5341 306.144 77.9401 306.775 78.5461C307.405 79.14 307.72 79.9884 307.72 81.0913C307.72 81.6973 307.611 82.2548 307.393 82.7639C307.175 83.2729 306.853 83.7092 306.429 84.0728C306.017 84.4364 305.502 84.7212 304.884 84.9273C304.266 85.1212 303.563 85.2182 302.775 85.2182Z" fill="black"/>
</svg>
