<svg xmlns="http://www.w3.org/2000/svg" xmlns:xlink="http://www.w3.org/1999/xlink" width="298" height="133" viewBox="0 0 298 133" fill="none">

<path d="M230.775 11.3375V22.675H231.471H232.166V11.3375V5.34058e-05H231.471H230.775V11.3375Z" fill="white"/>
<path d="M250.553 3.29303C250.414 3.7256 248.843 8.56757 247.064 14.0444C245.291 19.5283 243.845 24.0214 243.859 24.0354C243.942 24.1121 245.124 24.4191 245.166 24.3703C245.207 24.3214 252.118 3.06279 252.118 2.97907C252.118 2.95814 251.86 2.85349 251.547 2.74883C251.228 2.64418 250.936 2.5465 250.887 2.53255C250.838 2.51162 250.713 2.7907 250.553 3.29303Z" fill="white"/>
<path d="M236.191 10.1236C236.177 10.1585 235.454 23.0518 235.461 23.0657C235.468 23.0727 235.781 23.1006 236.163 23.1285L236.858 23.1774L237.213 16.6958C237.407 13.1376 237.56 10.2143 237.553 10.2003C237.532 10.1724 236.198 10.0957 236.191 10.1236Z" fill="white"/>
<path d="M241.356 17.0028C240.543 20.1842 239.861 22.8494 239.84 22.9261C239.806 23.0657 239.854 23.0936 240.466 23.2401C240.828 23.3238 241.14 23.3866 241.154 23.3657C241.196 23.3169 244.178 11.6166 244.158 11.5957C244.144 11.5817 243.845 11.498 243.483 11.4003C243.129 11.3096 242.837 11.2329 242.837 11.2329C242.83 11.2329 242.169 13.8283 241.356 17.0028Z" fill="white"/>
<path d="M262.74 20.6308C259.132 25.6123 256.156 29.7217 256.128 29.7705C256.08 29.8542 257.095 30.6496 257.199 30.6147C257.227 30.6008 260.028 26.7635 263.414 22.082C266.806 17.4005 269.782 13.2981 270.025 12.9632L270.47 12.3562L269.949 11.9655C269.664 11.7562 269.399 11.5817 269.365 11.5817C269.323 11.5817 266.341 15.6563 262.74 20.6308Z" fill="white"/>
<path d="M252.792 13.8283C252.771 13.8771 251.791 16.4446 250.602 19.5354C249.42 22.6262 248.384 25.3123 248.301 25.5146L248.162 25.8774L248.794 26.1216C249.149 26.2611 249.455 26.3518 249.476 26.3239C249.524 26.2681 254.043 14.4772 254.078 14.3167C254.092 14.2609 253.862 14.1353 253.487 13.9888C252.771 13.7097 252.84 13.7236 252.792 13.8283Z" fill="white"/>
<path d="M255.572 22.0122C253.786 24.8308 252.326 27.1611 252.326 27.189C252.326 27.2518 253.327 27.9077 253.424 27.9077C253.494 27.9077 260.008 17.6586 259.966 17.6237C259.938 17.6028 259.021 17.0167 258.895 16.94C258.854 16.9121 257.442 19.0679 255.572 22.0122Z" fill="white"/>
<path d="M263.72 27.8519C261.489 30.6147 259.66 32.9031 259.66 32.9311C259.66 32.959 259.89 33.1752 260.175 33.4055L260.689 33.8241L261.009 33.4264C261.35 33.0148 268.719 23.882 268.809 23.7564C268.858 23.6936 268.378 23.2541 267.898 22.9052C267.794 22.8285 267.294 23.4215 263.72 27.8519Z" fill="white"/>
<path d="M274.711 32.2543C269.719 35.8962 265.639 38.9102 265.646 38.9591C265.659 39.1265 266.382 40.0475 266.466 39.9986C266.695 39.8591 284.582 26.7774 284.582 26.7495C284.582 26.7285 284.402 26.4704 284.186 26.1704L283.783 25.6262L274.711 32.2543Z" fill="white"/>
<path d="M236.038 26.6797C235.656 27.2588 235.635 27.3495 235.788 27.6914C235.871 27.8797 235.947 28.2983 235.989 28.8007C236.031 29.2542 236.08 29.6658 236.093 29.7216C236.121 29.8123 236.038 29.8193 235.489 29.7844C234.773 29.7356 234.717 29.6937 234.3 28.9821L234.098 28.6472L233.834 29.1286L233.57 29.603L233.772 29.9728C234.196 30.7193 234.168 30.9217 233.605 31.4449C233.069 31.9403 232.729 32.0449 232.173 31.8845C232.041 31.8496 231.915 31.8356 231.895 31.8496C231.839 31.9124 232.423 32.4008 232.784 32.5961C233.285 32.8682 233.556 32.8543 233.876 32.5403C234.112 32.2961 234.529 31.5356 234.529 31.3403C234.529 31.2705 234.585 31.2565 234.724 31.2845C234.828 31.3124 235.287 31.3403 235.746 31.3542L236.58 31.3821L236.81 31.6473C236.997 31.8635 237.053 31.8984 237.102 31.8147C237.178 31.6891 237.282 31.2147 237.345 30.6984L237.387 30.3147L237.046 29.9588C236.483 29.3867 236.392 28.7797 236.768 28.0751L236.99 27.6425L236.684 27.2379C236.49 26.9727 236.365 26.7285 236.337 26.5541L236.302 26.282L236.038 26.6797Z" fill="white"/>
<path d="M228.273 26.7983C227.598 27.175 226.952 27.7541 226.479 28.396C225.979 29.0797 225.86 29.5332 226.118 29.7914C226.236 29.91 226.347 29.9309 226.931 29.9309C227.299 29.9309 227.779 29.903 227.988 29.8612C230.588 29.4077 230.727 29.3937 230.942 29.5332C231.137 29.6658 231.179 29.7914 231.04 29.7914C230.991 29.7984 229.76 29.9449 228.3 30.1263C226.187 30.3914 225.631 30.4821 225.534 30.5798C225.304 30.81 224.943 30.7333 224.484 30.3495C224.255 30.1542 224.053 30.0007 224.025 30.0007C224.004 30.0007 223.935 30.21 223.879 30.4681L223.782 30.9426L224.15 31.3612C224.359 31.5844 224.54 31.8496 224.567 31.9403C224.658 32.324 224.046 33.3077 223.615 33.4612C223.483 33.5101 223.233 33.5519 223.059 33.5519C222.753 33.5589 222.753 33.5589 222.885 33.6915C223.066 33.8659 223.886 34.1171 224.268 34.1171C224.491 34.1171 224.602 34.0752 224.72 33.9496C224.894 33.7612 225.144 33.0356 225.144 32.7008C225.144 32.3798 225.193 32.338 225.735 32.1984C226.006 32.1286 226.243 32.0379 226.264 32.01C226.284 31.9752 227.529 31.8007 229.023 31.6124C230.525 31.431 231.763 31.2705 231.776 31.2496C231.797 31.2286 231.853 30.8589 231.909 30.4263C231.992 29.6937 231.992 29.6239 231.874 29.3518C231.623 28.7867 231.102 28.396 230.609 28.396C230.49 28.396 230.143 28.4588 229.83 28.5286C229.079 28.71 227.737 28.8844 227.091 28.8844H226.569L226.848 28.6332C227.001 28.5007 227.411 28.1937 227.765 27.9565C228.419 27.5239 228.53 27.3774 228.725 26.7355C228.78 26.5332 228.732 26.5401 228.273 26.7983Z" fill="white"/>
<path d="M238.673 26.882C238.596 27.0076 238.443 27.2797 238.325 27.489L238.109 27.8727L238.089 29.7216L238.061 31.5705L238.207 31.4379C238.693 30.9984 238.86 30.0565 238.825 27.9286L238.805 26.6588L238.673 26.882Z" fill="white"/>
<path d="M243.768 30.0844C243.344 31.3891 243.011 32.4705 243.031 32.4844C243.045 32.4984 243.372 32.617 243.754 32.7496L244.443 32.9798L244.707 32.1705C244.853 31.724 244.999 31.3332 245.027 31.3053C245.054 31.2705 245.333 31.3263 245.645 31.4239C246.403 31.6681 246.848 31.6612 247.328 31.41C248.231 30.9356 248.44 29.61 247.71 28.9681C247.376 28.675 246.98 28.5006 245.694 28.089L244.54 27.7192L243.768 30.0844ZM246.146 29.4495C246.535 29.6239 246.646 29.8402 246.48 30.1332C246.382 30.3007 246.334 30.3146 245.944 30.3146C245.381 30.3146 245.326 30.2518 245.478 29.7774C245.666 29.2123 245.631 29.2262 246.146 29.4495Z" fill="white"/>
<path d="M267.822 31.5914L263.129 35.4845L263.574 36.0217L264.026 36.5519L264.555 36.1194C264.847 35.8752 266.897 34.1798 269.115 32.3449C271.333 30.5099 273.203 28.9541 273.272 28.8913C273.39 28.7727 273.376 28.7518 273.001 28.2843C272.786 28.0192 272.591 27.782 272.563 27.7541C272.535 27.7262 270.401 29.4495 267.822 31.5914Z" fill="white"/>
<path d="M222.614 28.1797C222.517 28.403 222.433 28.6123 222.433 28.6332C222.433 28.703 223.003 28.9542 223.163 28.9542C223.267 28.9542 223.358 28.8495 223.497 28.5704C223.712 28.1239 223.712 28.1169 223.587 28.1169C223.538 28.1169 223.351 28.0402 223.17 27.9425C222.989 27.8448 222.836 27.7681 222.822 27.7681C222.809 27.7681 222.718 27.9495 222.614 28.1797Z" fill="white"/>
<path d="M219.513 29.645V30.3427L220.354 31.9683C220.82 32.8613 221.209 33.6078 221.216 33.6148C221.23 33.6288 221.265 33.4543 221.293 33.2311C221.355 32.6869 221.258 32.2404 220.869 31.3752C220.466 30.4961 219.645 28.9542 219.569 28.9542C219.541 28.9542 219.513 29.2682 219.513 29.645Z" fill="white"/>
<path d="M217.567 30.3147V30.9426L217.803 31.1031C218.116 31.3194 219.075 32.8543 218.943 32.938C218.895 32.9729 218.832 33.0008 218.797 33.0008C218.769 33.0008 218.526 33.1055 218.262 33.238C217.49 33.6218 217.525 33.6287 217.393 33.1613C217.254 32.6729 216.969 32.2334 216.712 32.1078C216.545 32.0241 216.489 32.031 216.35 32.1217C216.135 32.2613 215.947 32.638 215.829 33.1404C215.711 33.6427 215.704 34.3404 215.822 34.3823C215.898 34.4102 215.718 34.5288 215.002 34.9264C214.89 34.9823 214.793 34.9962 214.716 34.9544C214.647 34.9195 214.32 34.5078 213.98 34.0404C213.639 33.5729 213.277 33.0776 213.173 32.938C213.069 32.7985 212.916 32.5892 212.839 32.4776L212.7 32.2682V32.8264V33.3915L213.18 34.0613C214.244 35.5404 214.195 35.4567 214.049 35.5683C213.973 35.6241 213.792 35.7288 213.639 35.7986C213.486 35.8753 213.312 35.973 213.25 36.0148C213.055 36.1474 212.819 36.0218 212.61 35.673C212.45 35.4148 212.395 35.366 212.346 35.4497C212.249 35.6381 212.262 36.0218 212.381 36.3009C212.492 36.559 212.492 36.566 212.325 36.7335C212.061 36.9986 211.922 36.9497 211.734 36.5451C211.574 36.2102 211.56 36.1962 211.498 36.3358C211.449 36.4404 211.456 36.58 211.505 36.7614C211.553 36.9079 211.588 37.0893 211.588 37.166C211.588 37.3265 211.303 37.6126 210.983 37.773L210.761 37.8847L210.684 37.5916C210.552 37.0823 210.538 37.0614 210.441 37.2916C210.385 37.4172 210.365 37.6335 210.385 37.8288L210.427 38.1568L209.85 38.7289L209.273 39.301L209.134 38.9382C208.926 38.3591 208.46 38.1637 207.883 38.4079C207.535 38.5544 207.375 38.8684 207.174 39.7754C207.076 40.2149 206.972 40.6615 206.944 40.7801L206.889 40.9894L206.694 40.6963C206.583 40.5359 206.395 40.3196 206.263 40.2219C206.131 40.1242 206.027 40.0056 206.027 39.9707C206.027 39.9289 205.978 39.7335 205.922 39.5312L205.818 39.1684L205.338 39.1963C204.991 39.2172 204.789 39.1963 204.636 39.1126C204.428 39.0149 204.421 39.0149 204.463 39.1265C204.49 39.1893 204.574 39.4126 204.65 39.6079C204.768 39.9149 204.831 39.9847 205.026 40.0405C205.297 40.1173 206.791 41.3661 206.791 41.5196C206.791 41.5754 206.715 41.701 206.618 41.7917C206.52 41.8824 206.458 42.001 206.472 42.0429C206.492 42.0917 206.395 42.2313 206.256 42.3499L206.006 42.5731L205.533 42.0987C205.269 41.8406 205.033 41.6452 205.012 41.6731C204.984 41.701 204.998 41.9173 205.04 42.1545C205.102 42.4894 205.172 42.6359 205.366 42.8383C205.498 42.9778 205.61 43.1104 205.61 43.1452C205.61 43.2499 205.012 43.9476 204.942 43.9197C204.9 43.9057 204.824 43.9685 204.775 44.0522C204.615 44.3592 204.344 44.4569 203.774 44.4011C203.309 44.3592 203.253 44.3662 203.114 44.5057C202.697 44.9243 203.197 46.4174 203.976 47.0593C204.421 47.4291 204.629 47.443 204.97 47.136C205.29 46.843 205.331 46.829 205.331 47.0314C205.331 47.2965 204.9 48.064 204.595 48.35C204.33 48.5942 204.247 48.6291 203.976 48.6291C203.802 48.6291 203.559 48.5802 203.441 48.5175C203.149 48.364 202.669 47.9105 202.363 47.4918C202.022 47.0244 201.981 47.2058 202.314 47.7081C202.683 48.2663 203.204 48.8035 203.74 49.1524C204.435 49.6198 204.97 49.6407 205.422 49.2151C205.533 49.1105 205.644 49.0617 205.672 49.0896C205.707 49.1244 205.79 49.3198 205.86 49.5291C205.929 49.7314 206.027 49.9198 206.075 49.9338C206.117 49.9547 206.319 49.8919 206.513 49.8012C206.812 49.6617 206.861 49.6198 206.826 49.4803C206.805 49.3965 206.771 49.25 206.75 49.1524C206.722 49.0407 206.736 48.9779 206.784 48.9779C206.958 48.9779 207.494 48.6849 207.466 48.6082C207.452 48.5593 207.382 48.364 207.32 48.1686L207.202 47.8128L206.771 47.9593C206.534 48.043 206.326 48.1128 206.312 48.1198C206.298 48.1267 206.34 48.2802 206.395 48.4547L206.506 48.7756L206.284 48.8663C206.013 48.9779 205.679 49.0617 205.679 49.0198C205.679 48.9989 205.756 48.8384 205.846 48.664C206.11 48.1686 206.207 47.6523 206.103 47.2197C206.006 46.7802 205.7 46.2848 205.325 45.943C204.984 45.636 204.88 45.6569 204.407 46.0965C204.226 46.2639 204.038 46.3965 203.99 46.3755C203.872 46.3407 203.851 45.7686 203.962 45.5592C204.045 45.3918 204.066 45.3848 204.845 45.3848C205.644 45.3848 205.644 45.3848 205.922 45.1616C206.075 45.036 206.326 44.7848 206.472 44.6104L206.743 44.2895L206.625 44.0522C206.562 43.9197 206.513 43.7941 206.513 43.7801C206.513 43.7592 206.652 43.7453 206.819 43.7453C207.104 43.7453 207.153 43.7173 207.431 43.3964C207.598 43.2011 207.73 43.0057 207.73 42.9499C207.73 42.8662 208.001 42.601 209.537 41.1778C210.601 40.187 211.178 39.594 211.213 39.4405C211.241 39.3498 211.31 39.28 211.38 39.28C211.609 39.28 212.283 38.7707 212.408 38.4986C212.492 38.3102 212.568 38.2335 212.687 38.2335C213.02 38.2335 213.465 37.8847 213.465 37.6265C213.465 37.487 213.5 37.466 213.702 37.466C213.834 37.466 213.959 37.4381 213.98 37.4032C214 37.3684 214.153 37.2777 214.313 37.2009C214.835 36.9497 214.862 36.9149 214.779 36.566C214.675 36.0916 214.71 36.0358 214.988 36.2451C215.12 36.3428 215.307 36.4195 215.405 36.4195C215.509 36.4195 215.836 36.273 216.149 36.0846C216.454 35.9032 217.421 35.4079 218.283 34.9892C219.465 34.4171 219.868 34.1869 219.903 34.0753C219.986 33.7683 219.666 32.7287 219.27 32.038C218.908 31.3961 218.888 31.3403 218.888 30.8729V30.3775L218.477 30.2938C218.158 30.224 218.012 30.1542 217.817 29.9519L217.567 29.6938V30.3147ZM216.99 33.3566C217.115 33.4683 217.101 33.5799 216.934 33.7962C216.781 33.9915 216.545 34.0334 216.308 33.9078C216.142 33.8101 216.142 33.7334 216.322 33.4404C216.454 33.2241 216.503 33.2032 216.684 33.238C216.802 33.259 216.934 33.3148 216.99 33.3566ZM208.703 39.4893C208.731 39.5312 208.682 39.6638 208.606 39.7893C208.411 40.0963 207.431 41.0661 207.375 41.0033C207.32 40.9475 207.494 40.3545 207.681 39.9777C207.883 39.5731 208.557 39.2452 208.703 39.4893Z" fill="white"/>
<path d="M250.553 30.7891C249.601 31.2426 248.85 32.4636 248.85 33.5589C248.85 34.2496 249.045 34.7241 249.483 35.1218C250.032 35.6171 250.38 35.7567 251.075 35.7567C251.589 35.7567 251.707 35.7357 251.985 35.5683C252.159 35.4636 252.423 35.2473 252.562 35.0938L252.827 34.8008L252.215 34.431L251.603 34.0613L251.464 34.2357C251.026 34.8008 250.261 34.5636 250.289 33.8729C250.303 33.4543 250.713 32.6031 251.089 32.2124C251.332 31.9542 251.443 31.8845 251.624 31.8845C252.173 31.8845 252.319 32.2194 252.111 32.9868C252.09 33.0496 252.291 33.1822 252.674 33.3496C253 33.4961 253.299 33.6217 253.341 33.6217C253.452 33.6287 253.577 33.0845 253.577 32.6031C253.57 31.8635 253.244 31.3612 252.472 30.9217C252.076 30.7054 251.951 30.6705 251.464 30.6496C250.984 30.6217 250.852 30.6426 250.553 30.7891Z" fill="white"/>
<path d="M214.73 31.3054C214.605 31.9263 214.55 31.8705 215.28 31.9891L215.53 32.024L215.641 31.5914C215.704 31.3542 215.738 31.1379 215.725 31.11C215.704 31.0891 215.558 31.0472 215.398 31.0263C215.231 30.9984 215.036 30.9635 214.96 30.9426C214.835 30.9007 214.807 30.9495 214.73 31.3054Z" fill="white"/>
<path d="M246.417 33.0426C246.292 33.3635 246.201 33.6496 246.222 33.6636C246.264 33.7124 247.481 34.1868 247.494 34.1659C247.515 34.145 247.946 32.9938 247.946 32.9659C247.946 32.9519 247.863 32.9101 247.759 32.8752C247.647 32.8333 247.355 32.7217 247.105 32.624L246.639 32.4496L246.417 33.0426Z" fill="white"/>
<path d="M255.927 36.1543C254.794 37.5218 254.37 38.073 254.418 38.1358C254.453 38.1776 254.717 38.4079 254.995 38.6451L255.503 39.0637L256.149 38.2962L256.789 37.5358L257.199 37.8916C257.421 38.0869 257.609 38.2753 257.609 38.3102C257.609 38.3521 257.345 38.7009 257.018 39.0846C256.692 39.4753 256.427 39.8102 256.427 39.8312C256.434 39.887 257.512 40.7591 257.574 40.7591C257.602 40.7591 258.339 39.9009 259.215 38.8614L260.8 36.9567L260.23 36.4823C259.917 36.2171 259.646 36.0008 259.625 36.0008C259.604 36.0008 259.326 36.3148 259.006 36.6985L258.429 37.4032L258.04 37.0753C257.818 36.8939 257.616 36.7195 257.581 36.6916C257.547 36.6637 257.776 36.3427 258.082 35.9799C258.395 35.6241 258.652 35.2962 258.666 35.2543C258.687 35.1915 257.644 34.2566 257.554 34.2566C257.526 34.2566 256.796 35.1148 255.927 36.1543Z" fill="white"/>
<path d="M232.374 35.7079L232.061 35.7567L232.617 35.8474C234.39 36.1405 235.781 36.8521 236.976 38.0731C238.415 39.5591 239.117 41.2755 239.117 43.3197C239.117 44.2825 239.034 44.8407 238.791 45.5942C238.061 47.8547 236.364 49.6129 234.119 50.4501L233.591 50.6454L238.652 50.6524H243.706V62.7573V74.8623H242.524H241.342V67.5016V60.141H240.647H239.952V77.9042C239.952 89.2766 239.972 95.6465 240.021 95.6186C240.056 95.5976 240.536 95.472 241.078 95.3465C242.322 95.0465 243.74 94.5999 244.957 94.1255C246.431 93.5394 248.621 92.472 249.281 92.0115C249.378 91.9417 249.483 91.8859 249.503 91.8859C249.656 91.8859 252.242 90.044 253.16 89.2905C255.788 87.1137 258.103 84.3997 259.883 81.4206C262.121 77.66 263.477 73.5506 263.984 68.9877C264.144 67.5156 264.144 64.3481 263.984 62.862C263.296 56.6316 261.044 51.2873 257.067 46.4663C256.233 45.4546 254.286 43.4941 253.431 42.8034C253.341 42.7267 253.105 42.5383 252.917 42.3848C252.722 42.2313 252.507 42.0499 252.43 41.9801C252.305 41.8615 251.971 41.6243 250.553 40.6406C250.122 40.3406 248.614 39.4196 248.551 39.4196C248.537 39.4196 248.224 39.2591 247.87 39.0568C245.875 37.9545 242.76 36.8102 240.473 36.3568C240.244 36.3079 239.938 36.2381 239.792 36.2033C239.646 36.1614 238.818 36.0358 237.949 35.9172C236.594 35.7358 236.114 35.7009 234.529 35.687C233.514 35.673 232.548 35.687 232.374 35.7079Z" fill="white"/>
<path d="M252.764 36.2869C252.597 36.552 252.465 36.8032 252.465 36.8311C252.465 36.866 252.722 37.0544 253.035 37.2497L253.605 37.6055L253.939 37.0753C254.127 36.7892 254.259 36.5241 254.238 36.4962C254.189 36.4125 253.188 35.7915 253.119 35.7915C253.084 35.7915 252.924 36.0148 252.764 36.2869Z" fill="white"/>
<path d="M230.915 35.9102C230.817 35.9241 230.407 36.0288 230.004 36.1404C226.007 37.2428 223.678 41.5615 224.929 45.5732C225.596 47.729 227.306 49.543 229.42 50.3384C229.691 50.4361 229.969 50.5477 230.046 50.5826C230.129 50.6175 227.64 50.6454 224.192 50.6454L218.193 50.6524V63.3852V76.1181H219.931H221.669V68.3039V60.4898H222.19H222.711V77.2623V94.0278L223.045 94.1533C223.226 94.2231 223.469 94.3138 223.58 94.3696C224.199 94.6417 226.146 95.1929 227.751 95.5557C228.641 95.7511 230.059 95.9673 230.88 96.0301C231.186 96.058 231.568 96.0929 231.735 96.1139L232.027 96.1487V66.0085V35.8613L231.561 35.8683C231.297 35.8753 231.012 35.8962 230.915 35.9102Z" fill="white"/>
<path d="M273.459 39.3917C270.533 41.2894 268.1 42.8662 268.051 42.9011C267.912 42.9848 268.635 44.115 268.788 44.0592C269.101 43.9406 279.577 37.0823 279.549 37.0125C279.487 36.8521 278.875 35.9311 278.826 35.9311C278.798 35.9311 276.386 37.487 273.459 39.3917Z" fill="white"/>
<path d="M261.628 41.4917L259.702 43.0615L260.126 43.5987C260.362 43.8917 260.578 44.1568 260.606 44.1917C260.633 44.2266 260.995 43.9824 261.398 43.6545L262.135 43.0475L262.309 43.2498L262.476 43.4522L261.968 44.3452L261.454 45.2383L261.975 45.8801L262.503 46.529L263.06 45.4825C263.484 44.6941 263.651 44.4499 263.727 44.4848C264.186 44.6801 264.645 44.6383 265.103 44.3522C265.778 43.9196 265.945 43.2359 265.562 42.4754C265.382 42.1266 263.678 39.9079 263.588 39.9149C263.567 39.9149 262.684 40.6265 261.628 41.4917ZM264.068 42.1754C264.499 42.6987 264.415 43.1871 263.908 43.1871C263.651 43.1801 263.567 43.1173 263.22 42.6917L262.962 42.3708L263.324 42.0847C263.525 41.9242 263.713 41.7987 263.741 41.8126C263.762 41.8196 263.908 41.9801 264.068 42.1754Z" fill="white"/>
<path d="M258.582 40.9893L258.131 41.4428L258.638 41.9521L259.139 42.4545L259.604 41.987L260.063 41.5196L259.591 41.0312C259.326 40.7591 259.097 40.5358 259.076 40.5358C259.048 40.5358 258.826 40.7381 258.582 40.9893Z" fill="white"/>
<path d="M276.178 44.2336C273.105 45.4615 270.574 46.4732 270.561 46.4941C270.491 46.5639 271.012 47.7569 271.11 47.75C271.193 47.736 282.295 43.3406 282.337 43.2987C282.372 43.2708 281.85 42.001 281.809 42.008C281.788 42.008 279.25 43.0127 276.178 44.2336Z" fill="white"/>
<path d="M202.141 43.5708C202.016 43.6266 201.828 43.6754 201.738 43.6754C201.626 43.6754 201.578 43.7103 201.598 43.7592C201.612 43.808 201.682 44.0313 201.751 44.2475C201.877 44.6313 201.883 44.6452 202.092 44.6034C202.412 44.5475 202.773 44.3661 202.739 44.2754C202.725 44.2336 202.669 44.0313 202.62 43.8289C202.516 43.4382 202.495 43.4243 202.141 43.5708Z" fill="white"/>
<path d="M208.147 43.7521C208.036 43.78 207.848 43.8289 207.744 43.8498C207.542 43.8917 207.528 43.9614 207.667 44.4498C207.695 44.5405 207.612 44.5824 207.278 44.6452L206.854 44.7289L206.896 44.9522C207.021 45.5731 207.076 45.7057 207.195 45.6778C207.257 45.6568 207.459 45.608 207.647 45.5592C207.994 45.4685 208.001 45.4545 207.911 45.0638L207.855 44.8126L208.272 44.694L208.682 44.5754L208.641 44.3522C208.613 44.2266 208.571 44.0242 208.55 43.8987C208.509 43.6614 208.481 43.6545 208.147 43.7521Z" fill="white"/>
<path d="M282.845 47.1219C277.054 49.0057 272.257 50.5755 272.194 50.5964C272.09 50.6383 272.097 50.7011 272.278 51.2801C272.389 51.636 272.486 51.929 272.5 51.9429C272.528 51.9639 293.815 45.0358 293.87 44.98C293.926 44.9242 293.523 43.7242 293.439 43.7032C293.404 43.6962 288.635 45.2312 282.845 47.1219Z" fill="white"/>
<path d="M263.261 46.808L262.761 47.1359L263.157 47.7359L263.553 48.329L264.089 47.9662L264.631 47.6034L264.262 47.0383C264.068 46.7243 263.873 46.4661 263.831 46.4731C263.797 46.4731 263.539 46.6266 263.261 46.808Z" fill="white"/>
<path d="M266.077 48.0848C266.285 48.2941 266.167 48.4616 265.395 49.0406C264.652 49.6127 264.631 49.6197 264.464 49.5151C264.318 49.4174 264.54 49.7593 265.465 51.043C265.562 51.1756 265.597 51.1826 265.882 51.1198L266.195 51.043L265.917 51.0012C265.764 50.9802 265.597 50.9384 265.548 50.9105C265.465 50.8546 264.909 50.0662 264.909 49.9965C264.909 49.9128 266.397 48.8383 266.515 48.8383C266.584 48.8383 266.689 48.9081 266.744 48.9918C266.807 49.0755 266.855 49.1244 266.855 49.0965C266.855 49.0197 266.098 48.0011 266.042 48.0011C266.014 48.0011 266.028 48.036 266.077 48.0848Z" fill="white"/>
<path d="M198.901 48.9151C198.463 49.1872 198.213 49.264 197.935 49.2151L197.657 49.1733L197.886 49.4523C198.004 49.6128 198.206 49.8221 198.324 49.9198C198.512 50.0803 198.581 50.1012 198.846 50.0593C199.075 50.0245 199.367 50.0733 200.014 50.2407C200.493 50.3663 200.883 50.4989 200.883 50.5407C200.883 50.5826 200.813 50.757 200.737 50.9314C200.66 51.1059 200.5 51.4896 200.389 51.7966C200.187 52.3478 200.083 52.5361 199.972 52.5361C199.874 52.5361 199.902 52.0896 200.014 51.8175L200.118 51.5663L199.819 51.3361C199.659 51.2105 199.499 51.071 199.471 51.0221C199.402 50.9105 199.284 50.9035 199.284 51.0152C199.284 51.2524 198.88 51.8733 198.463 52.271C198.206 52.5082 197.942 52.7873 197.879 52.885C197.608 53.2757 197.789 53.7571 198.352 54.1269C198.79 54.4199 198.866 54.4129 198.866 54.085C198.866 53.9106 198.943 53.6943 199.096 53.4431C199.346 53.0175 199.457 52.9478 199.527 53.171C199.624 53.478 199.569 53.8548 199.332 54.4408C199.2 54.7687 199.103 55.0548 199.124 55.0757C199.158 55.1106 199.019 55.7316 198.964 55.8013C198.957 55.8153 198.783 55.7316 198.575 55.6129C198.081 55.3339 197.407 55.2432 197.198 55.4315C197.003 55.606 197.024 55.8432 197.261 56.3525C197.483 56.8269 197.949 57.3711 198.262 57.5316C198.408 57.6083 198.449 57.6711 198.415 57.7549C198.387 57.8176 198.331 58.0549 198.289 58.2711L198.213 58.6758H197.761C197.344 58.6758 196.948 58.7665 196.732 58.906C196.579 59.0037 196.628 59.3456 196.837 59.5619C197.08 59.827 197.893 60.2945 198.373 60.4549C198.679 60.5526 198.79 60.5596 199.006 60.4968C199.332 60.3991 199.423 60.2875 199.471 59.9317C199.492 59.7712 199.541 59.6596 199.589 59.6735C199.722 59.7154 200.111 60.3503 200.194 60.6503C200.271 60.9503 200.25 61.5294 200.153 61.7805C200.097 61.9061 200.111 61.9061 200.271 61.7596C200.639 61.4177 201.015 60.4758 200.924 60.1131C200.869 59.8828 200.542 59.5689 200.083 59.3037C199.631 59.0456 199.617 59.2549 200.229 57.0781C200.472 56.2199 200.653 55.4943 200.639 55.4664C200.618 55.4385 200.688 55.2222 200.778 54.985C201.035 54.3571 201.015 54.2525 200.535 53.6594C200.299 53.3803 200.132 53.1292 200.146 53.1082C200.166 53.0943 200.306 53.1292 200.465 53.192C200.75 53.3036 201.077 53.3315 201.341 53.2617C201.487 53.2199 201.884 52.3826 202.28 51.2663C202.468 50.7221 202.474 50.7291 201.793 50.2756C201.487 50.0733 201.098 49.8989 200.604 49.7454C199.944 49.543 199.84 49.4872 199.492 49.1523L199.11 48.7826L198.901 48.9151ZM198.658 56.1571C198.783 56.4083 198.741 56.7083 198.554 56.8339C198.31 56.9944 198.15 56.9316 198.053 56.6316C197.949 56.3176 197.991 56.192 198.227 56.1013C198.505 56.0037 198.575 56.0106 198.658 56.1571ZM198.011 59.4572C197.893 59.7503 197.615 59.82 197.615 59.5619C197.615 59.4363 197.671 59.3665 197.81 59.3177C198.095 59.2061 198.109 59.22 198.011 59.4572Z" fill="white"/>
<path d="M267.307 50.2756C267.126 50.4221 267.12 50.443 267.252 50.4081C267.467 50.3453 267.634 50.457 267.815 50.7779L267.968 51.057L267.154 51.5314C266.702 51.7896 266.306 52.0128 266.278 52.0337C266.244 52.0477 266.146 51.9919 266.049 51.9012C265.924 51.7826 265.952 51.8733 266.188 52.2849C266.522 52.864 266.647 53.0454 266.501 52.7175C266.417 52.5361 266.424 52.5082 266.556 52.3965C266.765 52.2291 268.079 51.4895 268.169 51.4895C268.246 51.4895 268.336 51.6361 268.447 51.9291C268.496 52.0477 268.482 52.1524 268.42 52.2849C268.308 52.4942 268.315 52.4942 268.559 52.3826C268.684 52.3268 268.732 52.264 268.705 52.1733C268.67 52.0198 267.808 50.4849 267.634 50.2546L267.516 50.0942L267.307 50.2756Z" fill="white"/>
<path d="M279.32 53.5687C275.948 54.4826 273.168 55.2431 273.147 55.264C273.126 55.285 273.181 55.585 273.279 55.9269C273.432 56.499 273.453 56.5478 273.606 56.5269C273.849 56.499 285.862 53.2896 285.917 53.2407C286.001 53.164 285.66 51.943 285.549 51.9291C285.493 51.9291 282.692 52.6617 279.32 53.5687Z" fill="white"/>
<path d="M268.83 52.5012C268.85 52.557 268.885 52.6477 268.906 52.6896C268.927 52.7384 268.913 52.8152 268.885 52.857C268.83 52.9477 267.314 53.7222 267.189 53.7222C267.147 53.7222 267.05 53.6664 266.98 53.6036C266.834 53.471 267.321 54.6222 267.592 55.0548C267.94 55.6059 268.426 55.8362 268.941 55.6827C269.497 55.5152 269.761 55.0129 269.636 54.3431C269.573 54.0013 268.899 52.3966 268.823 52.3966C268.802 52.3966 268.809 52.4454 268.83 52.5012ZM269.295 53.6664C269.483 54.0361 269.455 54.685 269.247 54.9152C268.774 55.4385 267.974 55.3757 267.585 54.7827C267.397 54.4966 267.279 54.071 267.397 54.071C267.432 54.071 267.822 53.9036 268.253 53.6943C268.691 53.4919 269.066 53.3315 269.101 53.3524C269.128 53.3664 269.219 53.5129 269.295 53.6664Z" fill="white"/>
<path d="M195.703 55.0548C195.515 55.2013 195.348 55.3478 195.334 55.3827C195.328 55.4176 195.411 55.5501 195.522 55.6757L195.724 55.906L195.362 56.1501C195.168 56.2827 195.001 56.4013 194.994 56.4083C194.98 56.4153 195.091 56.5827 195.23 56.7781C195.376 56.9944 195.529 57.1409 195.606 57.1409C195.682 57.1409 195.738 57.1199 195.738 57.0851C195.738 57.0571 195.863 56.9455 196.009 56.8339L196.28 56.6316L196.106 56.3664L195.932 56.1013L196.162 55.906C196.287 55.8013 196.433 55.6757 196.495 55.6339C196.586 55.5641 196.565 55.5013 196.329 55.1594C196.183 54.9431 196.057 54.7687 196.057 54.7757C196.051 54.7757 195.898 54.9013 195.703 55.0548Z" fill="white"/>
<path d="M268.976 57.2734C268.614 57.4339 268.26 57.7897 268.1 58.1525C267.94 58.4944 267.933 58.7246 268.086 58.4316C268.267 58.0897 268.44 57.9292 268.885 57.7339C269.323 57.5385 270.025 57.4339 270.359 57.5176C270.456 57.5385 270.658 57.6641 270.797 57.7897L271.061 58.0129L270.88 57.7688C270.47 57.2176 269.594 56.9873 268.976 57.2734Z" fill="white"/>
<path d="M270.894 58.2641C270.88 58.5222 270.7 58.6199 269.838 58.8222L268.976 59.0245L268.85 58.8711L268.725 58.7176L268.76 58.892C268.788 58.9827 268.83 59.185 268.864 59.3385C268.913 59.5687 268.927 59.5827 268.934 59.4222C268.941 59.2966 268.99 59.2059 269.101 59.1641C269.302 59.0734 270.547 58.8013 270.588 58.8362C270.616 58.8711 269.733 60.2316 269.386 60.692C269.254 60.8595 269.149 61.0199 269.149 61.0409C269.149 61.0688 269.532 61.0339 270.004 60.9711C271.172 60.8037 271.298 60.8037 271.374 60.992C271.423 61.1037 271.43 61.0269 271.402 60.7339C271.353 60.3083 271.304 60.1339 271.304 60.413C271.304 60.5037 271.242 60.5874 271.152 60.6292C270.985 60.699 270.102 60.8385 269.838 60.8385C269.706 60.8385 269.699 60.8246 269.782 60.706C270.456 59.785 271.026 58.8501 271.019 58.6897C271.012 58.4664 270.901 58.1036 270.894 58.2641Z" fill="white"/>
<path d="M280.551 58.9967C277.318 59.1991 274.634 59.3665 274.586 59.3665C274.509 59.3735 274.495 59.513 274.516 60.0293C274.523 60.3921 274.558 60.7061 274.579 60.727C274.614 60.7689 286.216 60.0921 286.515 60.0293C286.64 60.0014 286.668 59.9526 286.668 59.7293C286.668 59.2061 286.578 58.606 286.501 58.613C286.46 58.62 283.783 58.7874 280.551 58.9967Z" fill="white"/>
<path d="M196.857 61.1944C196.426 61.2782 195.981 61.5084 195.877 61.7038C195.801 61.8503 195.807 61.9061 195.947 62.1224C196.252 62.6247 196.941 63.0015 197.545 63.0015C197.942 63.0015 197.97 62.9875 198.102 62.7712C198.31 62.4363 198.282 62.1224 198.032 61.8852C197.796 61.6689 197.851 61.6061 198.282 61.6061C198.512 61.6061 198.54 61.627 198.734 62.0456C199.124 62.8828 199.068 63.8526 198.609 64.1526C198.289 64.3689 197.42 64.2015 196.906 63.8247C196.69 63.6712 196.67 63.8457 196.885 64.0201C197.566 64.5713 198.873 65.0317 199.443 64.9271C199.756 64.8713 200.104 64.5782 200.229 64.2782C200.354 63.9852 200.354 63.1131 200.229 62.6945C200.069 62.1573 199.701 61.6131 199.395 61.4526C198.832 61.1596 197.636 61.0409 196.857 61.1944ZM197.247 62.0666C197.309 62.227 197.149 62.527 197.01 62.4991C196.802 62.4573 196.739 62.2549 196.878 62.1014C197.038 61.927 197.184 61.9131 197.247 62.0666Z" fill="white"/>
<path d="M194.396 61.8084L194.076 62.1363L194.327 62.3875L194.57 62.6386L194.285 62.9456L194 63.2596L194.313 63.5805C194.48 63.7619 194.66 63.8875 194.709 63.8666C194.758 63.8526 194.904 63.6921 195.036 63.5177L195.272 63.2038L195.064 62.9875L194.848 62.7712L195.119 62.4223L195.397 62.0735L195.168 61.8363C194.786 61.4386 194.758 61.4386 194.396 61.8084Z" fill="white"/>
<path d="M269.573 61.8574C269.302 62.0806 269.212 62.4016 269.302 62.8132C269.393 63.2458 269.615 63.4341 270.067 63.476C270.408 63.4969 270.449 63.483 270.637 63.2946C270.873 63.0434 270.957 62.562 270.818 62.2341C270.595 61.6899 269.983 61.5085 269.573 61.8574ZM270.623 62.1434C270.762 62.269 270.79 62.6527 270.679 62.8551C270.644 62.9248 270.484 63.0365 270.317 63.1062C269.566 63.4062 269.052 62.8062 269.594 62.262C269.796 62.0597 269.879 62.0248 270.164 62.0248C270.373 62.0248 270.54 62.0667 270.623 62.1434Z" fill="white"/>
<path d="M270.72 63.7759C270.804 63.9154 270.588 63.9782 270.039 63.9782C269.601 63.9782 269.49 63.9573 269.434 63.8526C269.379 63.7619 269.365 63.8317 269.365 64.1527C269.365 64.4736 269.379 64.5434 269.434 64.4457C269.49 64.348 269.601 64.3271 270.053 64.3271C270.665 64.3271 270.748 64.3899 270.748 64.8015C270.748 65.0596 270.665 65.0945 270.011 65.0945C269.539 65.0945 269.49 65.0806 269.427 64.9341C269.386 64.8224 269.365 64.8922 269.365 65.2341C269.372 65.4852 269.386 65.6387 269.406 65.5829C269.476 65.4085 269.566 65.3876 270.122 65.4224C270.609 65.4573 270.672 65.4504 270.811 65.3108C270.991 65.1294 270.998 64.8503 270.818 64.5503C270.679 64.3271 270.679 64.3271 270.818 64.3271C270.894 64.3271 270.957 64.2992 270.957 64.2643C270.957 64.1666 270.748 63.6992 270.706 63.6992C270.686 63.6992 270.693 63.734 270.72 63.7759Z" fill="white"/>
<path d="M274.641 64.6759V65.3736H285.938H297.235V64.6759V63.9782H285.938H274.641V64.6759Z" fill="white"/>
<path d="M196.468 66.6085C196.315 66.6154 195.703 66.6992 195.112 66.7829L194.035 66.9364L194.473 67.1317C195.314 67.5085 195.321 67.5085 197.267 67.2573C198.241 67.1387 199.047 67.0271 199.061 67.0131C199.096 66.9852 198.637 66.7271 198.387 66.6434C198.171 66.5666 197.17 66.5457 196.468 66.6085Z" fill="white"/>
<path d="M269.817 67.5364C269.768 68.0109 269.789 68.1644 269.914 68.1644C269.977 68.1644 270.019 67.983 270.088 67.4109C270.13 67.0829 270.123 67.0481 269.998 67.0481C269.88 67.0481 269.859 67.1109 269.817 67.5364Z" fill="white"/>
<path d="M194.674 68.6876C194.501 68.8899 194.355 69.0016 194.25 69.0016C193.965 69.0016 193.993 69.0923 194.327 69.2946C194.667 69.49 194.959 69.5458 195.085 69.4202C195.161 69.3434 196.218 69.183 196.273 69.2388C196.301 69.2667 195.926 69.6434 195.738 69.769C195.71 69.79 195.509 70.0551 195.286 70.3621C194.848 70.983 194.459 71.7574 194.515 71.904C194.584 72.0784 195.724 71.9877 195.933 71.7854C196.009 71.7226 196.155 71.4226 196.259 71.1295C196.419 70.697 196.44 70.5853 196.364 70.5365C196.239 70.4597 196.44 69.9993 196.711 69.7341L196.906 69.5458L197.121 69.7062C197.4 69.9086 197.671 70.3062 197.726 70.5853L197.768 70.8016L198.547 70.8295C198.971 70.8504 199.325 70.8644 199.332 70.8574C199.36 70.8365 199.054 68.6109 199.012 68.562C198.943 68.4923 197.872 68.6388 197.323 68.8062C196.927 68.9248 196.802 68.9318 196.503 68.869C196.308 68.8271 196.058 68.7923 195.947 68.7923C195.828 68.7923 195.738 68.7644 195.738 68.7295C195.738 68.6806 195.092 68.3736 194.98 68.3736C194.952 68.3736 194.813 68.5132 194.674 68.6876ZM197.587 69.2388C197.608 69.2946 197.615 69.3923 197.601 69.4551C197.58 69.5527 197.559 69.5458 197.42 69.4132C197.288 69.2946 197.274 69.2527 197.351 69.2039C197.483 69.1202 197.546 69.1272 197.587 69.2388Z" fill="white"/>
<path d="M274.197 68.869C274.176 68.9876 274.155 69.3016 274.155 69.5667C274.155 69.9505 274.176 70.0481 274.259 70.0481C274.315 70.0481 277.214 70.2086 280.704 70.397C284.187 70.5923 287.051 70.7319 287.065 70.7179C287.085 70.704 287.113 70.39 287.134 70.0272L287.176 69.3644L286.557 69.3225C285.869 69.2737 274.621 68.6527 274.391 68.6527C274.28 68.6527 274.231 68.7086 274.197 68.869Z" fill="white"/>
<path d="M268.788 69.797C268.719 70.1039 268.677 70.3691 268.698 70.383C268.719 70.404 268.733 70.3691 268.733 70.3063C268.733 70.1109 268.934 70.0621 269.303 70.1598C269.497 70.2086 269.657 70.2574 269.671 70.2714C269.685 70.2853 269.65 70.4667 269.595 70.6761C269.539 70.8854 269.511 71.1505 269.532 71.2691C269.588 71.5621 269.824 71.7924 270.081 71.7924C270.505 71.7854 270.735 71.4575 270.957 70.5226C271.124 69.8318 271.124 69.7691 270.999 69.9435C270.902 70.076 270.888 70.076 270.248 69.9505C269.136 69.7272 268.955 69.6574 268.927 69.4342C268.913 69.3086 268.865 69.4272 268.788 69.797ZM270.387 70.404C270.818 70.5086 270.846 70.5505 270.749 70.8435C270.484 71.6528 269.532 71.311 269.747 70.4807C269.796 70.3063 269.914 70.2923 270.387 70.404Z" fill="white"/>
<path d="M199.937 69.8248C200.02 69.9574 200.097 70.5225 200.048 70.6132C199.964 70.7458 199.825 70.6062 199.86 70.4248C199.881 70.3062 199.853 70.2504 199.756 70.2155C199.568 70.1597 199.464 70.2783 199.52 70.4946C199.603 70.8225 200.389 70.9342 200.465 70.6272C200.493 70.5086 200.528 70.4876 200.604 70.5365C200.82 70.676 200.82 70.5993 200.611 70.383C200.486 70.2574 200.375 70.083 200.354 69.9993C200.326 69.9086 200.27 69.8388 200.222 69.8388C200.173 69.8388 200.076 69.8179 200.006 69.7899C199.93 69.762 199.902 69.769 199.937 69.8248Z" fill="white"/>
<path d="M268.183 72.0086C268.135 72.1691 268.114 72.3156 268.135 72.3365C268.155 72.3574 268.176 72.3365 268.176 72.2946C268.176 72.176 268.371 72.19 268.858 72.3574C269.337 72.5179 269.414 72.6365 269.282 73.0133C269.177 73.2854 269.233 73.39 269.4 73.2505C269.483 73.1807 269.504 73.09 269.469 72.8528C269.435 72.5946 269.448 72.5528 269.532 72.5877C269.615 72.6156 269.636 72.5598 269.636 72.3016C269.636 72.0225 269.622 71.9946 269.553 72.0923C269.469 72.2039 269.428 72.2039 268.927 72.0295C268.628 71.9318 268.385 71.8202 268.385 71.7853C268.385 71.6179 268.26 71.7574 268.183 72.0086Z" fill="white"/>
<path d="M197.135 72.3226C196.697 72.518 196.12 72.9715 196.204 73.0482C196.232 73.0761 196.461 73.1668 196.704 73.2506L197.156 73.3971L197.33 73.2296C197.434 73.1389 197.643 72.9994 197.796 72.9226L198.081 72.7761L198.206 73.5017C198.276 73.9064 198.359 74.2343 198.394 74.2343C198.477 74.2343 198.463 74.5413 198.366 74.6669C198.317 74.7297 198.123 74.7924 197.935 74.8204C197.747 74.8413 197.573 74.8831 197.553 74.8971C197.532 74.918 197.608 75.0157 197.719 75.1064C197.879 75.239 198.011 75.2739 198.289 75.2808C198.686 75.2808 198.797 75.3785 198.797 75.7204C198.797 75.9227 198.686 75.9785 198.262 75.9785C197.956 75.9785 197.949 75.9855 198.06 76.1111C198.13 76.1878 198.31 76.2576 198.491 76.2785C198.887 76.3204 199.054 76.4739 199.11 76.8367C199.138 76.9971 199.172 77.1855 199.193 77.2623C199.228 77.3809 199.193 77.3879 198.79 77.339L198.345 77.2902L198.505 77.4646C198.595 77.5623 198.755 77.653 198.853 77.6739C199.165 77.7367 199.395 77.9739 199.492 78.3158C199.541 78.4902 199.617 78.6297 199.659 78.6297C199.708 78.6297 199.784 78.7484 199.833 78.8879C199.888 79.0344 199.944 79.1879 199.958 79.2298C199.986 79.2995 198.957 79.8158 197.268 80.5693L196.823 80.7647L197.414 80.8833L198.004 81.0019L199.798 80.1716C200.778 79.7181 201.599 79.3274 201.612 79.3135C201.696 79.2298 201.119 77.946 200.903 77.7227C200.75 77.5623 200.681 77.4297 200.702 77.346C200.764 77.1158 200.597 76.439 200.417 76.1599C200.285 75.9576 200.25 75.832 200.278 75.6576C200.333 75.3366 200.208 74.9529 200.02 74.8204C199.868 74.7227 199.861 74.7017 199.951 74.5203C200.048 74.332 200.007 73.9971 199.84 73.6413C199.805 73.5645 199.729 73.2296 199.673 72.8878C199.617 72.5529 199.548 72.2459 199.527 72.211C199.499 72.1691 199.068 72.1412 198.498 72.1482C197.601 72.1482 197.476 72.1622 197.135 72.3226Z" fill="white"/>
<path d="M274.064 73.6761L273.897 74.3529L279.772 75.8669C282.997 76.6971 285.66 77.3669 285.674 77.346C285.75 77.2762 286.035 76.0831 285.987 76.0413C285.959 76.0203 284.311 75.5808 282.323 75.0715C280.335 74.5622 277.7 73.8854 276.47 73.5715L274.238 72.9993L274.064 73.6761Z" fill="white"/>
<path d="M267.898 73.3133C267.641 73.4389 267.342 73.9203 267.342 74.2133C267.342 74.4785 267.523 74.8413 267.717 74.9668C268.287 75.3436 269.01 74.8413 269.01 74.0738C269.01 73.6761 268.858 73.411 268.545 73.2854C268.253 73.1598 268.19 73.1598 267.898 73.3133ZM268.649 73.725C268.92 73.8924 268.99 74.1366 268.844 74.4087C268.684 74.7017 268.385 74.8203 268.044 74.7227C267.523 74.5761 267.335 74.1575 267.62 73.7947C267.836 73.5226 268.287 73.4947 268.649 73.725Z" fill="white"/>
<path d="M194.827 73.6621L194.584 74.0668L194.98 74.29C195.203 74.4156 195.397 74.5133 195.411 74.5133C195.474 74.5133 195.724 74.0668 195.773 73.8714C195.814 73.711 195.787 73.6621 195.529 73.5017C195.085 73.2226 195.085 73.2226 194.827 73.6621Z" fill="white"/>
<path d="M266.869 75.2529C266.737 75.518 266.73 75.5668 266.821 75.5319C266.883 75.511 267.168 75.6157 267.488 75.7692L268.037 76.0482L267.829 76.418C267.717 76.6134 267.592 76.7878 267.557 76.8017C267.516 76.8157 267.266 76.6971 266.994 76.5366C266.626 76.3203 266.508 76.2157 266.508 76.0971C266.508 75.9854 266.452 76.0413 266.299 76.3064C266.063 76.718 266.042 76.8087 266.202 76.6413C266.32 76.5227 266.237 76.4878 267.231 77.0669L267.537 77.2413L267.829 76.6831C267.989 76.3692 268.148 76.118 268.176 76.118C268.211 76.118 268.329 76.2017 268.447 76.2994C268.725 76.5296 268.739 76.8227 268.482 77.0041C268.385 77.0738 268.232 77.1924 268.155 77.2692L268.002 77.4087L268.162 77.4297C268.364 77.4576 268.496 77.3529 268.67 77.018C268.878 76.5924 268.844 76.2854 268.552 75.9924C268.336 75.7761 268.315 75.7203 268.378 75.5808C268.426 75.4692 268.426 75.4203 268.378 75.4203C268.336 75.4203 268.287 75.4831 268.267 75.5599C268.246 75.6366 268.204 75.6994 268.169 75.6994C268.002 75.6994 267.12 75.1901 267.078 75.0645C267.029 74.9459 267.001 74.9738 266.869 75.2529Z" fill="white"/>
<path d="M265.618 77.4157C265.5 77.4994 265.465 77.5832 265.472 77.8134C265.479 78.0436 265.493 78.0715 265.527 77.939C265.618 77.6111 265.75 77.6111 266.25 77.932C266.508 78.0925 266.716 78.2529 266.716 78.2878C266.716 78.3227 266.668 78.4343 266.605 78.525C266.542 78.6227 266.522 78.6995 266.563 78.6995C266.598 78.6995 266.681 78.6157 266.751 78.5181C266.862 78.3506 266.876 78.3436 267.029 78.4483C267.293 78.6227 267.356 78.5878 267.231 78.3436C267.168 78.2181 267.133 78.0227 267.147 77.8832C267.175 77.646 267.175 77.646 267.057 77.7994L266.939 77.9529L266.417 77.632C266.132 77.4506 265.868 77.3041 265.833 77.3041C265.799 77.3041 265.701 77.3529 265.618 77.4157Z" fill="white"/>
<path d="M273.23 77.4925C273.154 77.6251 272.82 78.7135 272.848 78.7344C272.925 78.8111 294.135 85.6764 294.204 85.6555C294.274 85.6276 294.684 84.4136 294.642 84.3787C294.614 84.3578 273.342 77.4437 273.3 77.4437C273.279 77.4437 273.244 77.4646 273.23 77.4925Z" fill="white"/>
<path d="M264.596 78.1903C264.652 79.2438 265.326 79.8926 266.264 79.7949C266.577 79.767 267.203 79.5228 267.203 79.4391C267.203 79.4252 267.05 79.4601 266.855 79.5228C266.536 79.6205 266.48 79.6205 266.146 79.5159C265.43 79.2856 264.798 78.6507 264.638 78.0019C264.568 77.7019 264.568 77.7088 264.596 78.1903Z" fill="white"/>
<path d="M202.029 80.1645C201.418 80.2971 200.903 80.5553 200.375 81.0018C200.208 81.1343 199.874 81.6227 199.812 81.8041C199.77 81.9367 199.798 81.9437 200.375 81.9088L200.987 81.8739L201.306 81.3995C201.779 80.6948 201.793 80.6878 202.071 80.8274C202.53 81.0576 203.107 81.8599 203.107 82.2506C203.107 82.5088 202.836 82.8786 202.565 82.9972C202.419 83.06 202.092 83.1507 201.821 83.1995C201.39 83.2762 201.355 83.2902 201.536 83.339C201.779 83.4088 202.85 83.3321 203.176 83.2274C204.344 82.8576 204.685 82.3413 204.351 81.4762C204.178 81.0297 203.886 80.6808 203.392 80.3459C203.065 80.1157 202.551 80.0529 202.029 80.1645Z" fill="white"/>
<path d="M271.326 81.8879C271.305 81.9577 271.193 82.2298 271.089 82.5019C270.985 82.767 270.922 83.0112 270.943 83.0391C271.027 83.1228 282.935 87.6997 282.984 87.6648C283.046 87.6299 283.491 86.4438 283.463 86.4089C283.415 86.3671 271.492 81.7693 271.43 81.7693C271.395 81.7693 271.353 81.8251 271.326 81.8879Z" fill="white"/>
<path d="M199.263 83.0042C199.242 83.0739 199.207 83.2204 199.179 83.339C199.159 83.4507 199.124 83.6042 199.103 83.667C199.068 83.7856 199.138 83.8135 199.791 83.96C200.007 84.0088 200.062 83.9181 200.146 83.3949L200.194 83.1088L199.819 82.9972C199.339 82.8576 199.298 82.8576 199.263 83.0042Z" fill="white"/>
<path d="M204.031 84.281C203.885 84.3717 203.788 84.4973 203.739 84.6787C203.587 85.2298 203.67 85.3973 204.094 85.3973C204.372 85.3973 204.449 85.2996 204.219 85.2368C204.136 85.2159 204.08 85.1391 204.08 85.0554C204.08 84.867 204.108 84.874 204.316 85.0833C204.602 85.3694 204.81 85.3136 205.304 84.8391C205.63 84.5182 205.707 84.4205 205.596 84.4205C205.457 84.4205 205.137 84.6996 205.005 84.9438C204.928 85.0763 204.921 85.0763 204.741 84.9089C204.636 84.8112 204.483 84.6019 204.4 84.4414L204.254 84.1414L204.031 84.281Z" fill="white"/>
<path d="M204.852 85.9415C204.762 86.1159 204.908 86.3322 205.095 86.2903C205.297 86.2554 205.283 85.8578 205.074 85.8299C204.984 85.8159 204.894 85.8578 204.852 85.9415Z" fill="white"/>
<path d="M269.713 86.4369C269.518 86.7439 269.358 87.023 269.358 87.0509C269.358 87.1067 279.397 93.5115 279.543 93.5464C279.612 93.5603 280.384 92.451 280.328 92.4091C280.314 92.4022 278.069 90.9719 275.337 89.2347C272.605 87.4974 270.297 86.0323 270.22 85.9764C270.074 85.8857 270.053 85.9067 269.713 86.4369Z" fill="white"/>
<path d="M206.235 86.0601C206.235 86.0741 206.36 86.2834 206.513 86.5206C206.965 87.2183 206.965 87.6718 206.527 87.9299C206.312 88.0625 206.284 88.0625 205.992 87.9439C205.818 87.8811 205.533 87.6927 205.352 87.5322C205.06 87.2671 204.998 87.2392 204.831 87.295L204.65 87.3578L204.956 87.8602C205.408 88.6067 205.714 88.816 206.027 88.6067C206.117 88.5439 206.103 88.509 205.943 88.3904C205.665 88.1881 205.7 88.1323 206.082 88.1741C206.729 88.2299 207.32 87.7485 207.306 87.1694C207.299 86.8555 207.042 86.3322 206.868 86.2834C206.805 86.2624 206.638 86.1997 206.499 86.1369C206.353 86.0741 206.235 86.0392 206.235 86.0601Z" fill="white"/>
<path d="M204.567 88.3416C204.567 88.5579 204.664 88.7463 204.768 88.7463C204.963 88.7463 205.04 88.6486 205.005 88.4463C204.977 88.2928 204.928 88.2579 204.768 88.2579C204.65 88.2579 204.567 88.2928 204.567 88.3416Z" fill="white"/>
<path d="M208.606 89.0322C207.528 89.2136 206.715 90.0369 206.604 91.0555C206.576 91.3764 206.583 91.4741 206.639 91.4392C206.687 91.4113 206.722 91.3485 206.722 91.3067C206.722 91.2578 206.812 91.0346 206.917 90.8043C207.195 90.2183 207.855 89.6113 208.55 89.3043C208.849 89.1787 209.086 89.0462 209.086 89.0113C209.086 88.9834 209.065 88.9624 209.037 88.9624C209.002 88.9694 208.814 88.9973 208.606 89.0322Z" fill="white"/>
<path d="M267.328 89.8417C267.113 90.1417 266.96 90.4068 266.98 90.4277C267.043 90.4835 285.014 103.565 285.111 103.628C285.194 103.677 285.917 102.756 285.931 102.588C285.938 102.512 267.877 89.3044 267.766 89.3044C267.738 89.3044 267.537 89.5486 267.328 89.8417Z" fill="white"/>
<path d="M208.077 90.5882L207.869 90.6789L208.3 90.951C208.668 91.1813 208.738 91.265 208.814 91.5231C208.856 91.6836 208.877 91.8371 208.856 91.858C208.78 91.9348 208.397 91.6766 208.154 91.3836L207.904 91.0836V91.3348C207.904 92.0324 208.946 92.3673 209.169 91.7394C209.231 91.551 209.252 91.5371 209.343 91.6278C209.433 91.7185 209.433 91.7534 209.336 91.9417C209.273 92.0603 209.225 92.2208 209.225 92.3045C209.225 92.4301 209.238 92.4371 209.364 92.3604C209.44 92.3115 209.503 92.1999 209.503 92.1162C209.503 91.872 209.621 91.865 209.92 92.1022C210.184 92.3185 210.191 92.3324 210.149 92.6464L210.107 92.9673L210.274 92.8487C210.365 92.7859 210.434 92.6883 210.42 92.6185C210.406 92.5557 210.448 92.4301 210.511 92.3324C210.601 92.1859 210.67 92.165 211.039 92.165C211.519 92.165 211.685 92.2348 211.818 92.4929C211.873 92.5906 211.936 92.6394 211.957 92.6045C211.984 92.5627 211.915 92.3604 211.811 92.158L211.623 91.7813L211.192 91.7882C210.956 91.7882 210.712 91.8301 210.657 91.8789C210.531 91.9836 210.49 91.9557 209.927 91.4673C209.572 91.1534 208.495 90.4905 208.356 90.4905C208.321 90.4975 208.196 90.5394 208.077 90.5882Z" fill="white"/>
<path d="M210.212 91.0555C209.982 91.1462 210.038 91.3695 210.281 91.3486C210.413 91.3416 210.483 91.3765 210.51 91.4672C210.552 91.6067 210.823 91.5858 210.823 91.4393C210.823 91.2858 210.705 91.1811 210.594 91.23C210.517 91.2579 210.462 91.23 210.427 91.1323C210.378 91.0207 210.337 91.0067 210.212 91.0555Z" fill="white"/>
<path d="M207.751 92.1091C207.563 92.1719 207.563 92.1789 207.667 92.3812C207.751 92.5486 207.799 92.5835 207.924 92.5417C208.14 92.4789 208.147 92.4649 208.036 92.2417C207.952 92.0672 207.917 92.0533 207.751 92.1091Z" fill="white"/>
<path d="M264.221 93.33C263.873 93.7626 263.811 93.8812 263.88 93.944C263.957 94.0208 273.585 101.863 273.78 102.016C273.828 102.051 274.009 101.884 274.294 101.542C274.655 101.102 274.711 100.998 274.635 100.921C274.509 100.802 264.812 92.8975 264.721 92.8417C264.68 92.8138 264.457 93.037 264.221 93.33Z" fill="white"/>
<path d="M213.194 93.3719C212.875 93.4836 212.492 94.0138 212.444 94.4185L212.402 94.7115L212.59 94.544C212.715 94.4254 212.77 94.2998 212.77 94.1464C212.77 93.8603 212.909 93.7766 213.431 93.7208C213.778 93.6859 213.82 93.6929 214.029 93.9022C214.293 94.1673 214.348 94.1464 214.195 93.8254C213.924 93.2952 213.702 93.1975 213.194 93.3719Z" fill="white"/>
<path d="M214.633 94.1394C214.529 94.2231 214.529 94.244 214.64 94.3906C214.744 94.5301 214.786 94.5441 214.911 94.4743C215.085 94.3836 215.092 94.3696 214.994 94.1813C214.911 94.0278 214.8 94.0138 214.633 94.1394Z" fill="white"/>
<path d="M214 94.851C213.896 95.0673 213.813 95.3394 213.813 95.458C213.813 95.6673 213.82 95.6743 213.945 95.5487C214.021 95.4859 214.091 95.3254 214.105 95.1998L214.126 94.9696L214.577 95.2277C214.981 95.451 215.05 95.5278 215.238 95.9115C215.523 96.4906 215.592 96.5603 215.905 96.5603C216.232 96.5603 216.315 96.4487 216.072 96.3371C215.926 96.2673 215.62 95.8975 215.62 95.7719C215.62 95.758 215.857 95.8347 216.142 95.9533L216.663 96.1696L216.621 96.4348C216.559 96.7906 216.628 96.958 216.774 96.8324C216.851 96.7696 216.872 96.6789 216.837 96.5115C216.788 96.2254 216.823 96.2254 217.462 96.4766L217.949 96.672V96.9789C217.949 97.1534 217.921 97.4464 217.893 97.6418L217.845 97.9906L217.998 97.8092C218.088 97.7045 218.269 97.5859 218.408 97.5441C218.54 97.5022 218.756 97.3557 218.888 97.2231L219.117 96.9859L218.86 96.8603C218.651 96.7627 218.568 96.7557 218.394 96.8185C218.185 96.9022 218.185 96.9022 218.227 96.6929C218.297 96.365 218.13 96.1906 217.588 96.0022C216.969 95.7929 215.676 95.2277 214.89 94.8231C214.55 94.6487 214.251 94.4952 214.23 94.4812C214.209 94.4742 214.105 94.6417 214 94.851ZM218.505 97.1952C218.568 97.2859 218.547 97.3069 218.304 97.3697C218.123 97.4115 218.116 97.4045 218.185 97.265C218.269 97.1115 218.436 97.0696 218.505 97.1952Z" fill="white"/>
<path d="M217.136 95.3324C217.032 95.4092 217.032 95.444 217.108 95.5487C217.178 95.6464 217.226 95.6603 217.331 95.5975C217.428 95.5417 217.491 95.5487 217.567 95.6185C217.657 95.6952 217.692 95.6952 217.803 95.6185C217.915 95.5347 217.922 95.4999 217.845 95.4092C217.796 95.3464 217.699 95.3185 217.602 95.3464C217.511 95.3673 217.421 95.3533 217.4 95.3115C217.338 95.2138 217.282 95.2208 217.136 95.3324Z" fill="white"/>
<path d="M219.909 96.037C219.972 97.0277 219.701 97.8371 219.075 98.5557C218.894 98.765 218.839 98.8627 218.915 98.8627C219.11 98.8627 219.742 98.2766 219.958 97.8859C220.16 97.5231 220.173 97.4603 220.173 96.7696C220.173 96.1556 220.146 95.9882 220.021 95.7231L219.868 95.4091L219.909 96.037Z" fill="white"/>
<path d="M261.586 96.7766C261.127 97.1604 261.085 97.2162 261.169 97.3348C261.343 97.579 268.767 106.6 268.802 106.6C268.837 106.607 269.831 105.812 269.866 105.749C269.886 105.721 262.177 96.351 262.128 96.351C262.107 96.351 261.864 96.5464 261.586 96.7766Z" fill="white"/>
<path d="M217.525 98.4023C217.4 98.4999 217.4 98.5139 217.511 98.6255C217.63 98.7441 217.637 98.7441 217.776 98.6185C217.901 98.4999 217.929 98.4999 218.04 98.6046C218.144 98.6953 218.172 98.7023 218.297 98.6116C218.422 98.5209 218.422 98.5069 218.311 98.3953C218.207 98.2906 218.172 98.2837 218.047 98.3674C217.942 98.4302 217.88 98.4371 217.824 98.3813C217.727 98.2837 217.692 98.2837 217.525 98.4023Z" fill="white"/>
<path d="M257.762 99.393C257.408 99.6651 257.276 99.8047 257.311 99.8675C257.484 100.167 270.443 118.049 270.491 118.049C270.623 118.049 271.576 117.31 271.548 117.226C271.478 117.045 258.409 99.0023 258.339 99.0093C258.305 99.0093 258.04 99.1837 257.762 99.393Z" fill="white"/>
<path d="M253.786 101.73C253.501 101.919 253.258 102.1 253.244 102.142C253.23 102.184 254.794 104.654 256.713 107.647L260.209 113.075L260.752 112.726C261.051 112.537 261.308 112.363 261.329 112.328C261.357 112.279 254.558 101.64 254.384 101.472C254.328 101.416 254.175 101.479 253.786 101.73Z" fill="white"/>
<path d="M250.157 104.214L249.552 104.465L249.685 104.786C249.754 104.961 250.755 107.507 251.909 110.444C253.063 113.382 254.023 115.796 254.036 115.81C254.064 115.838 255.183 115.405 255.267 115.328C255.329 115.272 250.908 104.005 250.818 103.984C250.79 103.977 250.491 104.081 250.157 104.214Z" fill="white"/>
<path d="M246.111 105.763C245.805 105.868 245.548 105.986 245.534 106.028C245.513 106.084 252.368 127.356 252.437 127.461C252.451 127.468 252.75 127.384 253.112 127.266L253.772 127.042L253.272 125.494C249.601 114.128 246.793 105.561 246.73 105.568C246.695 105.568 246.41 105.658 246.111 105.763Z" fill="white"/>
<path d="M241.467 106.761C241.161 106.837 240.925 106.942 240.925 106.991C240.925 107.089 244.192 119.466 244.227 119.507C244.241 119.521 244.547 119.452 244.902 119.354C245.451 119.207 245.548 119.166 245.527 119.054C245.499 118.921 242.531 107.64 242.343 106.97C242.225 106.551 242.246 106.558 241.467 106.761Z" fill="white"/>
<path d="M237.261 107.982L236.754 108.009V108.268C236.754 108.407 236.914 111.086 237.101 114.212C237.296 117.338 237.449 119.975 237.449 120.066C237.449 120.233 237.449 120.233 238.109 120.198C238.478 120.177 238.791 120.142 238.818 120.121C238.839 120.093 238.7 117.414 238.499 114.163C238.304 110.905 238.144 108.177 238.144 108.086C238.144 107.961 238.109 107.933 237.956 107.947C237.845 107.954 237.532 107.975 237.261 107.982Z" fill="white"/>
<path d="M231.401 120.107V132.073H232.096H232.791V120.107V108.142H232.096H231.401V120.107Z" fill="white"/>
</svg>